<?xml version="1.0" encoding="UTF-8"?>
<svg id="Layer_1" data-name="Layer 1" xmlns="http://www.w3.org/2000/svg" xmlns:xlink="http://www.w3.org/1999/xlink" viewBox="0 0 2288 429.33">
  <defs>
    <style>
      .cls-1 {
        fill: #f6c159;
      }

      .cls-2 {
        fill: none;
      }

      .cls-3 {
        fill: #f8ce81;
      }

      .cls-4 {
        fill: #f7d28d;
      }

      .cls-5 {
        fill: #f6bc4d;
      }

      .cls-6 {
        fill: #fae2b8;
      }

      .cls-7 {
        fill: #fcf0da;
      }

      .cls-8 {
        fill: #fae3ba;
      }

      .cls-9 {
        fill: #f7cb76;
      }

      .cls-10 {
        fill: #f8d696;
      }

      .cls-11 {
        fill: #f8cf84;
      }

      .cls-12 {
        fill: #fae6c2;
      }

      .cls-13 {
        fill: #f7c362;
      }

      .cls-14 {
        fill: #fcedd3;
      }

      .cls-15 {
        fill: #f6c056;
      }

      .cls-16 {
        fill: #f5b332;
      }

      .cls-17 {
        fill: #fbe7c5;
      }

      .cls-18 {
        fill: #f8d595;
      }

      .cls-19 {
        fill: #f8d89e;
      }

      .cls-20 {
        fill: url(#linear-gradient);
      }

      .cls-21 {
        fill: #f6bd50;
      }

      .cls-22 {
        fill: #f9dba4;
      }

      .cls-23 {
        fill: #fae4bd;
      }

      .cls-24 {
        fill: #f9e0b4;
      }

      .cls-25 {
        fill: #fcf1dc;
      }

      .cls-26 {
        fill: #f7c970;
      }

      .cls-27 {
        fill: #fbeacd;
      }

      .cls-28 {
        fill: #f6b942;
      }

      .cls-29 {
        fill: #f5b436;
      }

      .cls-30 {
        fill: #f5b83f;
      }

      .cls-31 {
        fill: #fae5bf;
      }

      .cls-32 {
        fill: #f6c25c;
      }

      .cls-33 {
        clip-path: url(#clippath-11);
      }

      .cls-34 {
        clip-path: url(#clippath-10);
      }

      .cls-35 {
        clip-path: url(#clippath-15);
      }

      .cls-36 {
        clip-path: url(#clippath-13);
      }

      .cls-37 {
        clip-path: url(#clippath-14);
      }

      .cls-38 {
        clip-path: url(#clippath-12);
      }

      .cls-39 {
        fill: #f6be53;
      }

      .cls-40 {
        fill: #0a435c;
      }

      .cls-41 {
        clip-path: url(#clippath-1);
      }

      .cls-42 {
        clip-path: url(#clippath-3);
      }

      .cls-43 {
        clip-path: url(#clippath-4);
      }

      .cls-44 {
        clip-path: url(#clippath-2);
      }

      .cls-45 {
        clip-path: url(#clippath-7);
      }

      .cls-46 {
        clip-path: url(#clippath-6);
      }

      .cls-47 {
        clip-path: url(#clippath-9);
      }

      .cls-48 {
        clip-path: url(#clippath-8);
      }

      .cls-49 {
        clip-path: url(#clippath-5);
      }

      .cls-50 {
        fill: #f5b63c;
      }

      .cls-51 {
        fill: #fbecd0;
      }

      .cls-52 {
        fill: #fceed4;
      }

      .cls-53 {
        fill: #fcefd7;
      }

      .cls-54 {
        fill: #f7c76d;
      }

      .cls-55 {
        fill: #f7c66a;
      }

      .cls-56 {
        fill: #05425a;
      }

      .cls-57 {
        fill: #f9deaf;
      }

      .cls-58 {
        fill: #f7cd7e;
      }

      .cls-59 {
        fill: #fae3bb;
      }

      .cls-60 {
        fill: #f9daa1;
      }

      .cls-61 {
        fill: #f5b539;
      }

      .cls-62 {
        fill: #f7c567;
      }

      .cls-63 {
        fill: #f8d593;
      }

      .cls-64 {
        fill: #fae2b9;
      }

      .cls-65 {
        fill: #f6c35f;
      }

      .cls-66 {
        fill: #f9dca7;
      }

      .cls-67 {
        fill: #fbe9ca;
      }

      .cls-68 {
        fill: #fbe8c8;
      }

      .cls-69 {
        fill: #fbe8c6;
      }

      .cls-70 {
        fill: #f9ddac;
      }

      .cls-71 {
        fill: #f8d79b;
      }

      .cls-72 {
        fill: #f9dfb2;
      }

      .cls-73 {
        fill: #f6ba45;
      }

      .cls-74 {
        fill: #f8d38d;
      }

      .cls-75 {
        fill: #f7c464;
      }

      .cls-76 {
        fill: #fae5c1;
      }

      .cls-77 {
        fill: #0b445d;
      }

      .cls-78 {
        fill: #f7cc79;
      }

      .cls-79 {
        fill: #f7cd7c;
      }

      .cls-80 {
        fill: #f8d490;
      }

      .cls-81 {
        fill: #f7ca73;
      }

      .cls-82 {
        fill: #f8d799;
      }

      .cls-83 {
        fill: #f8d594;
      }

      .cls-84 {
        fill: #f4b535;
      }

      .cls-85 {
        fill: #f9ddaa;
      }

      .cls-86 {
        fill: #f8d087;
      }

      .cls-87 {
        fill: #f9dead;
      }

      .cls-88 {
        clip-path: url(#clippath);
      }

      .cls-89 {
        fill: #f6bb48;
      }

      .cls-90 {
        fill: #f9e1b6;
      }

      .cls-91 {
        fill: #f6bb4a;
      }

      .cls-92 {
        fill: #fceed5;
      }

      .cls-93 {
        fill: #f5b434;
      }

      .cls-94 {
        fill: #f8d698;
      }

      .cls-95 {
        fill: #fae7c4;
      }

      .cls-96 {
        fill: #f8d28a;
      }
    </style>
    <clipPath id="clippath">
      <rect class="cls-2" x="514.67" y="1.34" width="1773.33" height="405.33"/>
    </clipPath>
    <clipPath id="clippath-1">
      <rect class="cls-2" x="1669.12" y="20.73" width="15.42" height="375.05"/>
    </clipPath>
    <clipPath id="clippath-2">
      <rect class="cls-2" x="1668" y="20" width="17.33" height="376"/>
    </clipPath>
    <clipPath id="clippath-3">
      <rect class="cls-2" x="1669.12" y="20.73" width="15.42" height="375.05"/>
    </clipPath>
    <clipPath id="clippath-4">
      <rect class="cls-2" x="515.84" y="2.51" width="1128.16" height="403.2"/>
    </clipPath>
    <clipPath id="clippath-5">
      <rect class="cls-2" x="514.67" y="1.34" width="1129.33" height="405.33"/>
    </clipPath>
    <clipPath id="clippath-6">
      <rect class="cls-2" x="1750.67" y="49.34" width="537.33" height="310.67"/>
    </clipPath>
    <clipPath id="clippath-7">
      <rect class="cls-2" x="1.3" y=".93" width="427.48" height="427.48"/>
    </clipPath>
    <clipPath id="clippath-8">
      <circle class="cls-2" cx="215.04" cy="214.67" r="213.74"/>
    </clipPath>
    <clipPath id="clippath-9">
      <rect class="cls-2" width="429.33" height="429.33"/>
    </clipPath>
    <clipPath id="clippath-10">
      <rect class="cls-2" x="1.3" y=".93" width="427.48" height="427.48"/>
    </clipPath>
    <clipPath id="clippath-11">
      <circle class="cls-2" cx="215.04" cy="214.67" r="213.74"/>
    </clipPath>
    <linearGradient id="linear-gradient" x1="420.71" y1="-213.89" x2="676.7" y2="-213.89" gradientTransform="translate(-701.24 571.84) scale(1.67)" gradientUnits="userSpaceOnUse">
      <stop offset="0" stop-color="#9ee7f0"/>
      <stop offset="0" stop-color="#9ee7f0"/>
      <stop offset=".02" stop-color="#9fe7f0"/>
      <stop offset=".02" stop-color="#a0e7f0"/>
      <stop offset=".03" stop-color="#a1e8f0"/>
      <stop offset=".04" stop-color="#a1e8f1"/>
      <stop offset=".05" stop-color="#a2e8f1"/>
      <stop offset=".05" stop-color="#a3e8f1"/>
      <stop offset=".06" stop-color="#a4e8f1"/>
      <stop offset=".07" stop-color="#a4e9f1"/>
      <stop offset=".08" stop-color="#a5e9f1"/>
      <stop offset=".09" stop-color="#a6e9f1"/>
      <stop offset=".09" stop-color="#a7e9f1"/>
      <stop offset=".1" stop-color="#a7e9f1"/>
      <stop offset=".11" stop-color="#a8eaf2"/>
      <stop offset=".12" stop-color="#a9eaf2"/>
      <stop offset=".12" stop-color="#aaeaf2"/>
      <stop offset=".13" stop-color="#aaeaf2"/>
      <stop offset=".14" stop-color="#abeaf2"/>
      <stop offset=".15" stop-color="#aceaf2"/>
      <stop offset=".16" stop-color="#adebf2"/>
      <stop offset=".16" stop-color="#aeebf2"/>
      <stop offset=".17" stop-color="#aeebf3"/>
      <stop offset=".18" stop-color="#afebf3"/>
      <stop offset=".19" stop-color="#b0ebf3"/>
      <stop offset=".2" stop-color="#b1ecf3"/>
      <stop offset=".2" stop-color="#b1ecf3"/>
      <stop offset=".21" stop-color="#b2ecf3"/>
      <stop offset=".22" stop-color="#b3ecf3"/>
      <stop offset=".23" stop-color="#b4ecf3"/>
      <stop offset=".23" stop-color="#b4edf3"/>
      <stop offset=".24" stop-color="#b5edf4"/>
      <stop offset=".25" stop-color="#b6edf4"/>
      <stop offset=".26" stop-color="#b7edf4"/>
      <stop offset=".27" stop-color="#b7edf4"/>
      <stop offset=".27" stop-color="#b8edf4"/>
      <stop offset=".28" stop-color="#b9eef4"/>
      <stop offset=".29" stop-color="#baeef4"/>
      <stop offset=".3" stop-color="#baeef4"/>
      <stop offset=".3" stop-color="#bbeef5"/>
      <stop offset=".31" stop-color="#bceef5"/>
      <stop offset=".32" stop-color="#bdeff5"/>
      <stop offset=".33" stop-color="#bdeff5"/>
      <stop offset=".34" stop-color="#beeff5"/>
      <stop offset=".34" stop-color="#bfeff5"/>
      <stop offset=".35" stop-color="#c0eff5"/>
      <stop offset=".36" stop-color="#c0f0f5"/>
      <stop offset=".37" stop-color="#c1f0f5"/>
      <stop offset=".38" stop-color="#c2f0f6"/>
      <stop offset=".38" stop-color="#c3f0f6"/>
      <stop offset=".39" stop-color="#c4f0f6"/>
      <stop offset=".4" stop-color="#c4f0f6"/>
      <stop offset=".41" stop-color="#c5f1f6"/>
      <stop offset=".41" stop-color="#c6f1f6"/>
      <stop offset=".42" stop-color="#c7f1f6"/>
      <stop offset=".43" stop-color="#c7f1f6"/>
      <stop offset=".44" stop-color="#c8f1f7"/>
      <stop offset=".45" stop-color="#c9f2f7"/>
      <stop offset=".45" stop-color="#caf2f7"/>
      <stop offset=".46" stop-color="#caf2f7"/>
      <stop offset=".47" stop-color="#cbf2f7"/>
      <stop offset=".48" stop-color="#ccf2f7"/>
      <stop offset=".48" stop-color="#cdf3f7"/>
      <stop offset=".49" stop-color="#cdf3f7"/>
      <stop offset=".5" stop-color="#cef3f7"/>
      <stop offset=".51" stop-color="#cff3f8"/>
      <stop offset=".52" stop-color="#d0f3f8"/>
      <stop offset=".52" stop-color="#d0f3f8"/>
      <stop offset=".53" stop-color="#d1f4f8"/>
      <stop offset=".54" stop-color="#d2f4f8"/>
      <stop offset=".55" stop-color="#d3f4f8"/>
      <stop offset=".55" stop-color="#d3f4f8"/>
      <stop offset=".56" stop-color="#d4f4f8"/>
      <stop offset=".57" stop-color="#d5f5f8"/>
      <stop offset=".58" stop-color="#d6f5f9"/>
      <stop offset=".59" stop-color="#d6f5f9"/>
      <stop offset=".59" stop-color="#d7f5f9"/>
      <stop offset=".6" stop-color="#d8f5f9"/>
      <stop offset=".61" stop-color="#d9f6f9"/>
      <stop offset=".62" stop-color="#d9f6f9"/>
      <stop offset=".62" stop-color="#daf6f9"/>
      <stop offset=".63" stop-color="#dbf6f9"/>
      <stop offset=".64" stop-color="#dcf6fa"/>
      <stop offset=".65" stop-color="#ddf6fa"/>
      <stop offset=".66" stop-color="#ddf7fa"/>
      <stop offset=".66" stop-color="#def7fa"/>
      <stop offset=".67" stop-color="#dff7fa"/>
      <stop offset=".68" stop-color="#e0f7fa"/>
      <stop offset=".69" stop-color="#e0f7fa"/>
      <stop offset=".7" stop-color="#e1f8fa"/>
      <stop offset=".7" stop-color="#e2f8fa"/>
      <stop offset=".71" stop-color="#e3f8fb"/>
      <stop offset=".72" stop-color="#e3f8fb"/>
      <stop offset=".73" stop-color="#e4f8fb"/>
      <stop offset=".73" stop-color="#e5f9fb"/>
      <stop offset=".74" stop-color="#e6f9fb"/>
      <stop offset=".75" stop-color="#e6f9fb"/>
      <stop offset=".76" stop-color="#e7f9fb"/>
      <stop offset=".77" stop-color="#e8f9fb"/>
      <stop offset=".77" stop-color="#e9f9fc"/>
      <stop offset=".78" stop-color="#e9fafc"/>
      <stop offset=".79" stop-color="#eafafc"/>
      <stop offset=".8" stop-color="#ebfafc"/>
      <stop offset=".8" stop-color="#ecfafc"/>
      <stop offset=".81" stop-color="#ecfafc"/>
      <stop offset=".82" stop-color="#edfbfc"/>
      <stop offset=".83" stop-color="#eefbfc"/>
      <stop offset=".84" stop-color="#effbfc"/>
      <stop offset=".84" stop-color="#effbfd"/>
      <stop offset=".85" stop-color="#f0fbfd"/>
      <stop offset=".86" stop-color="#f1fcfd"/>
      <stop offset=".87" stop-color="#f2fcfd"/>
      <stop offset=".88" stop-color="#f2fcfd"/>
      <stop offset=".88" stop-color="#f3fcfd"/>
      <stop offset=".89" stop-color="#f4fcfd"/>
      <stop offset=".9" stop-color="#f5fcfd"/>
      <stop offset=".91" stop-color="#f6fdfe"/>
      <stop offset=".91" stop-color="#f6fdfe"/>
      <stop offset=".92" stop-color="#f7fdfe"/>
      <stop offset=".93" stop-color="#f8fdfe"/>
      <stop offset=".94" stop-color="#f9fdfe"/>
      <stop offset=".95" stop-color="#f9fefe"/>
      <stop offset=".95" stop-color="#fafefe"/>
      <stop offset=".96" stop-color="#fbfefe"/>
      <stop offset=".97" stop-color="#fcfefe"/>
      <stop offset=".98" stop-color="#fcfeff"/>
      <stop offset=".98" stop-color="#fdffff"/>
      <stop offset=".99" stop-color="#feffff"/>
      <stop offset="1" stop-color="#fff"/>
    </linearGradient>
    <clipPath id="clippath-12">
      <rect class="cls-2" x="325.34" y="115.03" width="2.67" height=".97"/>
    </clipPath>
    <clipPath id="clippath-13">
      <rect class="cls-2" x="56.98" y="146.67" width="301.69" height="152.36"/>
    </clipPath>
    <clipPath id="clippath-14">
      <rect class="cls-2" x="318.67" y="165.34" width="54.31" height="89.33"/>
    </clipPath>
    <clipPath id="clippath-15">
      <rect class="cls-2" x="328" y="194.67" width="44.97" height="73.33"/>
    </clipPath>
  </defs>
  <g class="cls-88">
    <g>
      <g class="cls-41">
        <g class="cls-44">
          <g class="cls-42">
            <path class="cls-40" d="M1669.12,20.73h15.42v375.07h-15.42V20.73Z"/>
          </g>
        </g>
      </g>
      <g class="cls-43">
        <g class="cls-49">
          <g>
            <path class="cls-40" d="M587.44,309.31V124.5h-63.15v-31.88h166.23v31.88h-63.46v184.81h-39.62Z"/>
            <path class="cls-40" d="M748.41,313.02c-15.49,0-29.22-3.3-41.19-9.9-11.96-6.61-21.35-15.9-28.17-27.85-6.81-11.97-10.21-25.8-10.21-41.5s3.35-30.02,10.06-42.4c6.71-12.39,15.99-22.03,27.85-28.94,11.88-6.92,25.86-10.38,41.96-10.38,15.05,0,28.36,3.31,39.92,9.92,11.57,6.6,20.6,15.62,27.1,27.08,6.5,11.45,9.75,24.18,9.75,38.21,0,2.28-.06,4.66-.17,7.12-.1,2.47-.25,5.06-.46,7.75h-116.69c.83,11.96,5.01,21.35,12.54,28.17,7.53,6.81,16.66,10.21,27.4,10.21,8.04,0,14.8-1.8,20.27-5.42,5.47-3.61,9.55-8.3,12.23-14.08h40.25c-2.89,9.7-7.69,18.52-14.4,26.48-6.71,7.95-14.97,14.19-24.77,18.73-9.8,4.53-20.89,6.8-33.27,6.8ZM748.72,184.25c-9.71,0-18.28,2.74-25.71,8.21-7.43,5.46-12.18,13.77-14.23,24.92h76.46c-.62-10.11-4.34-18.16-11.15-24.15-6.8-5.99-15.26-8.98-25.37-8.98Z"/>
            <path class="cls-40" d="M841.58,309.31v-153.54h34.98l3.08,26c4.75-9.08,11.61-16.3,20.58-21.67,8.98-5.36,19.57-8.04,31.75-8.04,18.98,0,33.73,5.99,44.25,17.96,10.53,11.96,15.79,29.49,15.79,52.6v86.69h-39.62v-82.96c0-13.21-2.68-23.32-8.04-30.33-5.36-7.03-13.72-10.54-25.08-10.54s-20.27,3.93-27.4,11.77c-7.11,7.85-10.67,18.79-10.67,32.81v79.25h-39.62Z"/>
            <path class="cls-40" d="M1087.05,313.02c-15.49,0-29.22-3.3-41.19-9.9-11.96-6.61-21.35-15.9-28.17-27.85-6.81-11.97-10.21-25.8-10.21-41.5s3.35-30.02,10.06-42.4c6.71-12.39,15.99-22.03,27.85-28.94,11.88-6.92,25.86-10.38,41.96-10.38,15.05,0,28.36,3.31,39.92,9.92,11.57,6.6,20.6,15.62,27.1,27.08,6.5,11.45,9.75,24.18,9.75,38.21,0,2.28-.06,4.66-.17,7.12-.1,2.47-.25,5.06-.46,7.75h-116.69c.83,11.96,5.01,21.35,12.54,28.17,7.53,6.81,16.66,10.21,27.4,10.21,8.04,0,14.8-1.8,20.27-5.42,5.47-3.61,9.55-8.3,12.23-14.08h40.25c-2.89,9.7-7.69,18.52-14.4,26.48-6.71,7.95-14.97,14.19-24.77,18.73-9.8,4.53-20.89,6.8-33.27,6.8ZM1087.36,184.25c-9.71,0-18.28,2.74-25.71,8.21-7.43,5.46-12.18,13.77-14.23,24.92h76.47c-.62-10.11-4.34-18.16-11.15-24.15-6.81-5.99-15.27-8.98-25.38-8.98Z"/>
            <path class="cls-40" d="M1180.22,309.31v-153.54h35.29l3.71,28.79c5.57-9.9,13.15-17.79,22.75-23.67,9.59-5.89,20.9-8.83,33.9-8.83v41.79h-11.15c-8.67,0-16.41,1.34-23.21,4.02-6.81,2.68-12.12,7.33-15.94,13.94-3.82,6.6-5.73,15.78-5.73,27.54v69.96h-39.62Z"/>
            <path class="cls-40" d="M1306.82,131.94c-7.22,0-13.16-2.17-17.81-6.5-4.64-4.33-6.96-9.8-6.96-16.42s2.32-12.01,6.96-16.23c4.65-4.23,10.59-6.35,17.81-6.35s13.15,2.12,17.79,6.35c4.65,4.22,6.98,9.64,6.98,16.23s-2.33,12.08-6.98,16.42c-4.64,4.33-10.57,6.5-17.79,6.5ZM1287,309.31v-153.54h39.62v153.54h-39.62Z"/>
            <path class="cls-40" d="M1357.9,309.31v-120.42h-21.07v-33.12h21.06v-17.96c0-18.57,4.69-31.77,14.08-39.6,9.39-7.84,22.13-11.77,38.23-11.77h17.02v33.73h-10.83c-6.81,0-11.66,1.34-14.54,4.02-2.89,2.68-4.33,7.22-4.33,13.62v17.96h33.1v33.12h-33.1v120.42h-39.62Z"/>
            <path class="cls-40" d="M1512.97,313.02c-15.49,0-29.22-3.3-41.19-9.9-11.96-6.61-21.35-15.9-28.17-27.85-6.81-11.97-10.21-25.8-10.21-41.5s3.35-30.02,10.06-42.4c6.71-12.39,15.99-22.03,27.85-28.94,11.88-6.92,25.86-10.38,41.96-10.38,15.05,0,28.36,3.31,39.92,9.92,11.57,6.6,20.6,15.62,27.1,27.08,6.5,11.45,9.75,24.18,9.75,38.21,0,2.28-.06,4.66-.17,7.12-.1,2.47-.25,5.06-.46,7.75h-116.69c.83,11.96,5.01,21.35,12.54,28.17,7.53,6.81,16.66,10.21,27.4,10.21,8.04,0,14.8-1.8,20.27-5.42,5.47-3.61,9.55-8.3,12.23-14.08h40.25c-2.89,9.7-7.69,18.52-14.4,26.48-6.71,7.95-14.97,14.19-24.77,18.73-9.8,4.53-20.89,6.8-33.27,6.8ZM1513.29,184.25c-9.71,0-18.28,2.74-25.71,8.21-7.43,5.46-12.18,13.77-14.23,24.92h76.46c-.62-10.11-4.34-18.16-11.15-24.15-6.81-5.99-15.26-8.98-25.37-8.98Z"/>
          </g>
        </g>
      </g>
      <g class="cls-46">
        <g>
          <path class="cls-40" d="M1783.24,197.4l-28.54-104.21h13.38l22.44,89.35,25.58-89.35h13.81l24.83,89.35,22.75-89.35h13.38l-29.15,104.06h-14.27l-24.81-85.94-25.44,85.94-13.96.15Z"/>
          <path class="cls-40" d="M1929.66,199.05c-7.04,0-13.29-1.61-18.75-4.83-5.45-3.22-9.73-7.71-12.85-13.46-3.11-5.75-4.67-12.54-4.67-20.38s1.53-14.48,4.6-20.27c3.07-5.8,7.35-10.32,12.85-13.54s11.86-4.83,19.1-4.83,13.3,1.61,18.5,4.83c5.21,3.22,9.2,7.46,11.98,12.71s4.17,10.9,4.17,16.94c0,1.1-.03,2.2-.08,3.29-.04,1.08-.06,2.32-.06,3.71h-58.73c.29,5.66,1.6,10.34,3.94,14.06,2.33,3.71,5.26,6.51,8.77,8.4,3.51,1.88,7.26,2.81,11.23,2.81,5.15,0,9.46-1.19,12.92-3.56,3.47-2.39,6-5.61,7.58-9.67h12.35c-1.99,6.83-5.78,12.51-11.38,17.02-5.59,4.51-12.75,6.77-21.47,6.77ZM1929.66,132.3c-5.95,0-11.22,1.81-15.83,5.42-4.61,3.61-7.27,8.89-7.96,15.83h46.38c-.29-6.64-2.57-11.84-6.83-15.6-4.28-3.77-9.53-5.65-15.76-5.65Z"/>
          <path class="cls-40" d="M1997.29,199.05c-6.16,0-11.27-1.04-15.33-3.12-4.06-2.08-7.08-4.86-9.06-8.33-1.97-3.47-2.96-7.23-2.96-11.29,0-7.54,2.88-13.34,8.62-17.4,5.75-4.07,13.57-6.1,23.48-6.1h19.92v-.88c0-6.44-1.69-11.32-5.06-14.65-3.36-3.32-7.87-4.98-13.52-4.98-4.85,0-9.04,1.22-12.56,3.65-3.52,2.42-5.72,5.96-6.6,10.62h-12.79c.5-5.36,2.3-9.88,5.42-13.54,3.12-3.67,7.01-6.46,11.67-8.4,4.67-1.93,9.62-2.9,14.88-2.9,10.32,0,18.07,2.75,23.27,8.25,5.21,5.5,7.81,12.81,7.81,21.94v45.33h-11.15l-.75-13.23c-2.08,4.17-5.14,7.72-9.15,10.65-4.03,2.92-9.41,4.38-16.14,4.38ZM1999.23,188.49c4.75,0,8.83-1.23,12.25-3.71,3.43-2.48,6.03-5.71,7.81-9.67,1.78-3.97,2.67-8.14,2.67-12.5v-.15h-18.88c-7.33,0-12.52,1.27-15.54,3.79-3.02,2.53-4.52,5.68-4.52,9.44s1.41,6.98,4.23,9.31c2.83,2.33,6.82,3.49,11.98,3.49Z"/>
          <path class="cls-40" d="M2073.99,197.26c-6.74,0-12.04-1.63-15.92-4.9-3.86-3.28-5.79-9.18-5.79-17.71v-40.58h-12.79v-10.54h12.79l1.65-17.71h10.85v17.71h21.69v10.54h-21.69v40.58c0,4.67.94,7.82,2.81,9.46,1.89,1.62,5.21,2.44,9.96,2.44h7.73v10.71h-11.29Z"/>
          <path class="cls-40" d="M2094.04,197.26v-107.05h12.5v45.94c2.47-4.55,5.98-8.09,10.54-10.62,4.57-2.53,9.53-3.79,14.88-3.79,8.53,0,15.36,2.66,20.52,7.96,5.15,5.29,7.73,13.45,7.73,24.46v43.1h-12.33v-41.77c0-15.36-6.2-23.04-18.58-23.04-6.45,0-11.85,2.31-16.21,6.92-4.36,4.6-6.54,11.16-6.54,19.69v38.21h-12.51Z"/>
          <path class="cls-40" d="M2203.91,199.05c-7.04,0-13.29-1.61-18.75-4.83-5.45-3.22-9.73-7.71-12.85-13.46-3.11-5.75-4.67-12.54-4.67-20.38s1.53-14.48,4.6-20.27c3.07-5.8,7.35-10.32,12.85-13.54s11.86-4.83,19.1-4.83,13.3,1.61,18.5,4.83c5.21,3.22,9.2,7.46,11.98,12.71s4.17,10.9,4.17,16.94c0,1.1-.03,2.2-.08,3.29-.04,1.08-.06,2.32-.06,3.71h-58.73c.29,5.66,1.6,10.34,3.94,14.06,2.33,3.71,5.26,6.51,8.77,8.4,3.51,1.88,7.26,2.81,11.23,2.81,5.15,0,9.46-1.19,12.92-3.56,3.47-2.39,6-5.61,7.58-9.67h12.35c-1.99,6.83-5.78,12.51-11.38,17.02-5.59,4.51-12.75,6.77-21.47,6.77ZM2203.91,132.3c-5.95,0-11.22,1.81-15.83,5.42-4.61,3.61-7.27,8.89-7.96,15.83h46.38c-.29-6.64-2.57-11.84-6.83-15.6-4.27-3.77-9.52-5.65-15.76-5.65Z"/>
          <path class="cls-40" d="M2247,197.26v-73.73h11.31l1.04,14.1c2.28-4.84,5.74-8.71,10.4-11.58,4.67-2.88,10.42-4.31,17.25-4.31v13.08h-3.42c-4.36,0-8.38.77-12.04,2.31-3.67,1.53-6.59,4.12-8.77,7.79s-3.27,8.72-3.27,15.17v37.17h-12.5Z"/>
          <path class="cls-40" d="M1761.82,313.03v-104.06h63.33v10.25h-50.85v36.58h43.27v10.1h-43.27v47.12h-12.48Z"/>
          <path class="cls-40" d="M1865.73,314.82c-6.93,0-13.18-1.58-18.73-4.75-5.56-3.18-9.95-7.67-13.17-13.46-3.21-5.8-4.81-12.62-4.81-20.46s1.63-14.62,4.9-20.42c3.28-5.8,7.71-10.29,13.31-13.46,5.59-3.18,11.86-4.77,18.79-4.77s13.19,1.59,18.73,4.77c5.55,3.17,9.94,7.66,13.17,13.46,3.22,5.79,4.83,12.6,4.83,20.42s-1.64,14.66-4.92,20.46c-3.27,5.79-7.7,10.28-13.29,13.46-5.6,3.17-11.87,4.75-18.81,4.75ZM1865.73,304.11c4.26,0,8.23-1.04,11.9-3.12,3.67-2.08,6.64-5.2,8.92-9.35,2.28-4.17,3.42-9.32,3.42-15.48s-1.12-11.29-3.35-15.46c-2.22-4.17-5.17-7.28-8.83-9.35-3.67-2.08-7.58-3.12-11.75-3.12s-8.22,1.04-11.9,3.12c-3.67,2.07-6.64,5.19-8.92,9.35-2.28,4.17-3.42,9.32-3.42,15.46s1.14,11.31,3.42,15.48c2.28,4.16,5.22,7.27,8.83,9.35,3.61,2.08,7.51,3.12,11.68,3.12Z"/>
          <path class="cls-40" d="M1911.8,313.03v-73.73h11.31l1.04,14.1c2.28-4.84,5.74-8.71,10.4-11.58,4.67-2.88,10.42-4.31,17.25-4.31v13.08h-3.42c-4.36,0-8.38.77-12.04,2.31-3.67,1.53-6.59,4.12-8.77,7.79-2.18,3.67-3.27,8.72-3.27,15.17v37.17h-12.5Z"/>
          <path class="cls-40" d="M1984.36,314.82c-8.72,0-15.66-2.65-20.81-7.96-5.16-5.3-7.73-13.46-7.73-24.46v-43.1h12.48v41.77c0,15.36,6.3,23.04,18.9,23.04,6.43,0,11.75-2.3,15.96-6.92,4.22-4.61,6.33-11.18,6.33-19.71v-38.19h12.48v73.73h-11.29l-.9-13.23c-2.28,4.66-5.68,8.32-10.19,11-4.5,2.69-9.58,4.03-15.23,4.03Z"/>
          <path class="cls-40" d="M2034.13,313.03v-73.73h11.31l.9,10.69c2.38-3.96,5.54-7.03,9.5-9.21,3.97-2.18,8.43-3.27,13.38-3.27,5.86,0,10.9,1.19,15.1,3.56,4.21,2.38,7.45,5.99,9.73,10.85,2.58-4.46,6.12-7.97,10.62-10.54,4.51-2.58,9.4-3.88,14.65-3.88,8.82,0,15.85,2.66,21.1,7.96,5.26,5.29,7.9,13.45,7.9,24.46v43.1h-12.33v-41.77c0-7.64-1.54-13.39-4.62-17.25-3.07-3.86-7.48-5.79-13.23-5.79s-10.88,2.31-14.79,6.92c-3.92,4.6-5.88,11.16-5.88,19.69v38.21h-12.48v-41.77c0-7.64-1.54-13.39-4.62-17.25-3.07-3.86-7.47-5.79-13.21-5.79s-10.73,2.31-14.65,6.92c-3.92,4.6-5.88,11.16-5.88,19.69v38.21h-12.5Z"/>
        </g>
      </g>
    </g>
  </g>
  <g class="cls-45">
    <g class="cls-48">
      <g class="cls-47">
        <g class="cls-34">
          <g class="cls-33">
            <path class="cls-20" d="M1.3.93v427.48h427.48V.93H1.3Z"/>
          </g>
        </g>
      </g>
    </g>
  </g>
  <g class="cls-38">
    <path class="cls-71" d="M326.63,115.04h.41s-.02.2-.02.2h-.57s-.62-.1-.62-.1l.8-.1Z"/>
  </g>
  <path class="cls-4" d="M260.06,201.62l-4.95,6.76-2.28-2.74,7.23-4.02Z"/>
  <path class="cls-77" d="M335.3,269.64l3.56-2.45c-.17.38-.36.65-.69.88l-2.32,1.62c-.12.07-.61,0-.55-.05Z"/>
  <path class="cls-77" d="M259.13,214.22l1.44-2.1.17.15s-.01.33-.05.39l-.8,1.11c-.14.19-.55.47-.76.45h0Z"/>
  <path class="cls-77" d="M260.39,211.93l-1.65.95-.27-.39,1.47-.61c.07-.04.3-.13.29-.12-.01,0,.12.12.16.17Z"/>
  <g class="cls-36">
    <path class="cls-56" d="M284.8,193.83l.88,1.03.57.8,1.4,1.91.72.97,1.37,1.87,1.14,1.55,1.14,1.55.99,1.34,1.13,1.53,1.15,1.56.58.79,1.13,1.54.98,1.33,1.39,1.89.89,1.2,1.24,1.68,1.15,1.56,1.11,1.51.76,1.03,1.12,1.53,1.22,1.65.91,1.22.97,1.33,1.4,1.89.88,1.19,1.23,1.7.31.43,6.16,8.39,10.39,14.11,9.77,13.27-3.56,2.45s-.13-.13-.1-.1l-7.82-10.49-22.19-29.65-10.2-13.66-1.55.55-12.95-18.82,2.26-2.17,1.57-1.72.46.26h0ZM256.54,210.02l-1.51-1.74-5.31,7.22c-.16.22-.53.72-.39.91l.6.77c1.24,1.59,2.84,2.69,4.94,2.42,1.76-.22,3.52-1.49,3.91-3.5l.36-1.89,1.43-2.1-.18-.19-1.65.95-.27-.38-1.93-2.47h0ZM283.14,194.53l-2.57,2.48c-.2.19-.21.84-.04,1.1l12.36,17.97c.33.49,1.29.29,1.91.03l10.29,13.74,22.27,29.76,7.15,9.6.67.32-7.82-10.49-22.18-29.65-10.21-13.66-1.55.56-12.95-18.82,2.26-2.17,1.57-1.72-1.16.95ZM206.01,148.9c-1-1.16-2.19-1.95-3.62-2.04-1.51-.09-3.1.42-4.05,1.7l-3.46,4.64-53.15,70.44-14.74-19.68-.72-.66-1.54-.78-2.29-.03c-1.53.44-2.46,1.31-3.41,2.63l-59.56,83.08c-1.91,2.67-2.79,3.04-2.35,6.45l.56,1.21.54.84.83.56c.61.41,1.22.62,1.88.81l1.6-.03c.92-.38,2.12-.63,2.84-1.63l58.15-81.09,11.58,15.43c.17.22.64.67.51.86l-.59.8-7.17,9.51-5.2,6.91-3.08,4.05c-1.35,1.77-1.38,4.2-.07,5.81.83,1.02,1.76,1.6,2.93,1.92l1.94-.02c1.23-.44,2.15-.97,2.99-2.09l74.34-98.49.55-.73.41.54,1.26,1.54.59.83,2.11,2.43.59.81.39.34.55.83,2.11,2.44.6.81.39.34.57.81.4.36,2.34,2.83.34.4.56.85,1.16,1.27.59.81.39.34.56.83,2.11,2.44.6.81.38.34.56.85,1.15,1.27.59.81.39.34.55.83,2.11,2.44.59.81.39.34.56.84,1.15,1.28.59.81.38.34.56.83,2.11,2.44.59.81.39.34.56.84,1.15,1.28.59.81.39.34.55.83,2.11,2.44.6.81.39.34.56.84,1.15,1.27.59.81.39.34.55.83,2.11,2.44.59.81.39.34.57.83,2.03,2.48-25.82,35.18-1.49,2.05c-.29.4-.53.94-.71,1.39l.02,2.54c.51,1.73,1.71,2.93,3.45,3.46l2.33.02,1.72-.76,1.12-1.26,45.42-61.89c.88.79,1.18,1.41,1.74,2.18l31.98,43.44,3.52,4.78,2.72,3.69,33.76,45.87,1.19,1.21c.55.33,1.08.59,1.68.79l2.15-.03,1.51-.58.8-.61c.55-.81.98-1.56,1.38-2.47v-2.11c-.3-.66-.54-1.3-1.02-1.94l-17.74-24.12v.03c-.18.38-.36.65-.69.88l-2.32,1.62c-.11.08-.61,0-.55-.05-.06-.05-.14-.13-.11-.1l-.67-.32-7.15-9.59-22.27-29.76-10.29-13.74c-.61.27-1.58.47-1.91-.02l-12.36-17.97c-.18-.27-.16-.91.04-1.1l2.57-2.48,1.16-.96.5.26-.24-.5-1.16-1.53-.99-1.34-1.14-1.55-1.15-1.55-1.12-1.5c-.27-.36-.93-.93-1.32-1.14-.51-.27-1.2-.48-1.72-.66-.52-.03-1.41.09-1.91.22-1.23.33-2.17,1.2-2.93,2.24l-1.06,1.45-3.08,4.26-3.82,5.2-3.08,4.19-4.95,6.76-2.28-2.74-1.55-1.89-.95-1.17-.78-.94-.95-1.14-.52-.62-1.24-1.52-.95-1.15-1.13-1.35-1.57-1.91-.95-1.16-1.29-1.55-.6-.73-1.31-1.57-1.39-1.69-1.12-1.38-.62-.75-.8-.96-.44-.64-.69-.72-.16-.22-.59-.7-.96-1.15-.96-1.17-1.72-2.1-.34-.42-.8-.96-.78-.93-.96-1.17-.95-1.16-.54-.64-1.38-1.67-.62-.75-2.25-2.71-2.35-2.85-1.72-2.15-.17-.2-1.08-1.39-.65-.79-3-3.62-.65-.8c-.74-.72-1.48-1.6-2.03-2.47l-.62-.79-.42-.32-.58-.83-1.67-1.92-.08-.06ZM258.77,216.11c-.39,2.01-2.15,3.28-3.9,3.51-2.09.27-3.7-.83-4.94-2.42l-.6-.77c-.14-.18.23-.69.39-.91l5.3-7.22,1.51,1.74,1.94,2.47,1.47-.62c.07-.03.29-.12.29-.12-.02.01.12.13.16.17l.18.2.17.15s-.01.33-.05.39l-.81,1.11c-.13.18-.54.47-.74.45l-.37,1.87h0ZM135.81,231.44c-.03-.22.32-.57.49-.8l5.26-6.99c.27.21.6.48.74.68l2.84,3.89c1.31,1.8.88,4.27-.52,5.82s-3.89,2.13-5.9.88c-1.11-.69-2.84-2.92-2.91-3.48ZM144.62,234.03c1.4-1.55,1.83-4.02.52-5.82l-2.84-3.89c-.14-.19-.47-.46-.74-.67l-5.26,6.99c-.18.23-.52.57-.49.8.07.57,1.8,2.79,2.91,3.47,2.01,1.25,4.48.72,5.9-.88h0Z"/>
  </g>
  <path class="cls-90" d="M234.66,183.5l-.69-.72.69.72Z"/>
  <g class="cls-37">
    <path class="cls-93" d="M372.15,187.91l.22,1.21-.02.18.21,1.32v.4s.19,1.35.19,1.35v2.48s0,2.21,0,2.21c0,.12-.41.43-.32.52l.38.39-.82.62.43.53-1.2,1.05.43.49-1.2,1.04.39.49-1.52,1.47c.04.7-.2,1.1-.71,1.45,0,.64-.23,1.19-.75,1.53.04,1.47-1.4,1.81-1.18,2.05l.34.4-1.52,1.48c.17,1.18-1.18,1.77-1.11,1.84l.31.33-1.51,1.48c.18,1.3-1.33,1.72-1.12,1.97l.34.41-1.23,1.17c-.07.06-.4-.05-.42.04l-.15.46-.48,1.45c-.14.42-.96.98-1.3,1.32l-.15,1.01-1.85,1.78.4.45-2.32,2.26-.06.89-2.18,2.11-.14.96-3,2.97-.06,1.07-.66-.55-.05,1.04-3.77,3.73-.15,1.1-.62-.53-.08,1.08-13.26,13.26-.49-.45-.13,1.24-1.15-.54-10.39-14.11,13.6-13.73c.14-.12.35-.27.28-.33l-.38-.36,4.21-4.16-.34-.48,3.43-3.35-.35-.49,2.67-2.59-.4-.53,1.95-1.57-.38-.51,1.94-1.83-.39-.49,1.91-1.79-.39-.49,1.95-1.83-.42-.48,1.19-1.04-.4-.51,1.91-1.79-.39-.51,1.2-1.07c-.11-.1-.49-.41-.39-.49l.46-.4c.48-.41.68-.76.68-1.48l1.49-1.45-.37-.5,1.19-1.05-.43-.48,1.2-1.05-.43-.48,1.2-1.05-.43-.48,1.2-1.05-.43-.48,1.2-1.05-.44-.48,1.2-1.05-.43-.48,1.18-1.05-.38-.48c.17-.16.36-.31.31-.38l-.35-.4,1.2-1.04-.43-.49,1.2-1.05-.43-.52.82-.64c-.18-.17-.44-.38-.36-.47l.28-.34-.3-.43c-.05-.08.32-.35.32-.44l.05-2.19.14.08.1.98,1.47-1.43-.41-.47,1.19-1.04-.38-.48c.17-.16.36-.31.31-.38l-.34-.4,1.18-1.05-.38-.48c.18-.16.37-.31.31-.38l-.34-.4,1.18-1.05-.38-.48c.17-.16.36-.31.31-.38l-.35-.4,1.18-1.04-.38-.49c.18-.16.35-.3.3-.38l-.27-.33.34-.82c3.29,7.09,5.47,14.63,6.66,22.32h0v-.05Z"/>
  </g>
  <path class="cls-16" d="M365.5,165.59l-.35.82.27.33c.05.07-.12.21-.3.38l.38.48-1.18,1.05.34.4c.06.07-.14.22-.31.38l.38.49-1.18,1.04.34.4c.06.07-.14.22-.3.38l.38.48-1.18,1.05.35.4c.06.07-.14.22-.31.38l.39.48-1.19,1.04.42.47-1.48,1.42-.09-.97-.14-.08-.05,2.19c0,.09-.37.37-.32.45l.3.43-.28.34c-.08.09.18.3.36.47l-.82.63.43.52-1.2,1.05.43.49-1.2,1.04.35.41c.06.06-.14.22-.31.38l.39.48-1.19,1.05.43.48-1.2,1.05.43.48-1.2,1.05.44.49-1.2,1.05.43.49-1.2,1.05.44.49-1.2,1.05.43.48-1.19,1.05.36.5-1.49,1.45c0,.72-.2,1.07-.68,1.48l-.46.4c-.09.08.28.39.39.48l-1.2,1.07.39.51-1.91,1.79.4.5-1.19,1.05.42.47-1.94,1.84.38.49-1.91,1.79.39.49-1.94,1.83.38.51-1.95,1.57.4.53-2.67,2.58.35.49-3.43,3.35.34.49-4.2,4.16.37.36c.07.07-.14.21-.28.34l-13.6,13.73-6.16-8.39,1.9-1.52,5.6-5.55.99-1.15,3.5-3.78,2.14-2.58,1.71-2.03,2.15-2.79.85-1.12,1.39-1.84.89-1.24,2.47-3.51.98-1.49,2.12-3.28,1.22-2.01,1.15-1.93,1.05-1.82,3.59-6.83c5.43-10.72,9.47-21.98,12.38-33.56,2.59,3.88,4.94,7.95,6.87,12.2h-.05Z"/>
  <g class="cls-35">
    <path class="cls-84" d="M372.96,195.79l-.02,8.84-.02.73-.19,1.96v.55s-.19,1.35-.19,1.35v.39s-.19,1.32-.19,1.32l.02.18-.23,1.19c-2.16,14.46-8.12,28.13-17.28,39.54l-.58.84c-.52.44-1.07,1.12-1.45,1.7l-.66.78c-.32.23-.72.62-.88.95l-1.45,1.54c-.53.36-1.1.95-1.48,1.48l-2.1,2.02c-.27.15-.6.44-.77.69l-1.02.78-.52.57-.83.57-.32.41-.79.61-3.15,2.35v.03s-9.77-13.27-9.77-13.27l1.15.54.12-1.25.49.45,13.26-13.26.08-1.08.63.53.15-1.09,3.77-3.73.05-1.04.67.55.05-1.07,3.01-2.96.14-.96,2.18-2.11.06-.89,2.32-2.26-.39-.45,1.85-1.78.15-1c.33-.34,1.15-.91,1.29-1.32l.49-1.45.15-.47c.03-.09.35.03.42-.04l1.24-1.17-.34-.41c-.21-.24,1.31-.67,1.12-1.97l1.51-1.48-.31-.33c-.07-.08,1.29-.66,1.11-1.84l1.52-1.48-.34-.39c-.21-.24,1.22-.58,1.18-2.05.52-.34.75-.89.75-1.53.52-.35.76-.76.71-1.46l1.52-1.46-.38-.5,1.2-1.04-.44-.49,1.2-1.05-.43-.53.82-.62-.38-.39c-.08-.09.33-.4.33-.51v-2.21s.21-.02.21-.02v.96h0s-.02.01-.02.01Z"/>
  </g>
  <path class="cls-23" d="M274.75,118.85l-.2,1.92-.09,3.1-.29,1.35-.38,3.09-.34,1.83-.39,1.8-.4,1.67-.39,1.6-.54,1.94-.82,2.52-.62,1.4-.23.78-.82,2.02-1.68,3.66-1.14,1.99-1.36,2.54-.68,1.09-.86,1.23c-.31.45-.57.96-.79,1.46l-1.57,1.92-.86,1.22-1.34,1.64-2.66,2.85-2.61,2.6-.86.66-2.51,2.29-1.64,1.23-1.07.87-1.43,1.06-1.98,1.32-2.99,1.8-1.81,1.07-1.54.79-1.42.69-1.44.69-1.39.46c-.65.57-1.53,1.04-2.3.53l-1.72-2.1c.61.39,1.17.28,1.85-.03l2.27-1.03,1.21-.49,1.68-.85,1.42-.72,1.94-1.08,1.58-.95,2.11-1.33,1.4-1.03,3.01-2.23,1.96-1.67,1.06-.89,2.09-1.84c2.29-2.03,4.16-4.35,5.93-6.83l.79-1.1,1.66-2.29.85-1.34.78-1.2.85-1.56,3.14-6.34c.07-.32.17-.62.32-.97l.43-.99.32-.95.38-.81.81-2.56c.15-.46.16-.96.4-1.38l.33-1.23.46-1.99c.11-.51.12-.87.41-1.34l.08-1.21.4-1.86.38-3.36c.16-1.4.44-2.78.31-4.22l.51-.48,2.08-.41h-.04v-.02Z"/>
  <path class="cls-67" d="M261.89,122.36c-.91,9.04-3.9,17.74-9.05,25.33l-.56.82-1.14,1.57-.95,1.3-2.5,2.91-2.85,2.89-3.11,2.67-1.09.83c-1.75,1.34-3.47,2.57-5.45,3.57l-6.51,3.29-5.11,1.84-.35.34-2.25-2.71c4.42-1.29,8.75-2.82,12.72-5.25l1.78-1.09,2.73-1.9,2.01-1.6,2.11-1.77,3.32-3.33,1.97-2.33,1.49-1.93c5.22-7.13,8.52-15.47,9.56-24.23l3.23-1.22h0Z"/>
  <path class="cls-19" d="M297.64,117.78h1.53s.41-.01.41-.01l-.04.2h-1.41s-.17,4.76-.17,4.76l-.11,1.62c-.57,7.93-2.26,15.64-4.89,23.1l-2.64,6.64c-2.93,6.72-6.79,12.88-11.21,18.72l-1.46,1.82-3.12,3.58c-1.97,2.26-4.02,4.31-6.28,6.27l-3.28,2.84-1.6,1.27-2.18,1.69c-4.29,3.11-8.72,5.85-13.51,8.18l-.83-.1-.95-1.15,2.23-.98,6.34-3.64,2.2-1.43,1.74-1.19,2.81-2.01,2.54-2.04,1.59-1.31c3.41-2.82,6.49-5.89,9.33-9.29l1.57-1.9,2.46-3.14c6.73-9.01,11.6-19.11,14.53-29.99l1.48-6.39.8-4.95.42-4.07.31-5.2.07-1.89h1.32Z"/>
  <path class="cls-60" d="M294.96,117.59h1.92s.77-.01.77-.01v.2s-1.35.01-1.35.01l-.07,1.89-.31,5.2-.42,4.07-.8,4.95-1.48,6.39c-2.93,10.89-7.8,20.99-14.53,29.99l-2.46,3.14-1.57,1.9c-2.83,3.41-5.92,6.47-9.32,9.29l-1.59,1.31-2.54,2.04-2.81,2.01-1.74,1.19-2.2,1.43-6.34,3.64-2.23.98-1.12-1.35c5.03-2.52,9.89-5.22,14.34-8.62l1.74-1.33,3.56-2.98,1.2-.92,6.96-7.06,2.01-2.4,1.54-1.93,1.16-1.53,1.21-1.66c3.02-4.11,5.56-8.44,7.66-13.09l1.33-2.94c4.56-10.74,6.93-22.2,6.9-33.81h.58Z"/>
  <path class="cls-24" d="M283.63,117.61l1.15-.03-.75.25-.19,5.23c-.64,7.97-2.39,15.7-5.43,23.1l-.62,1.52-1.16,2.52c-2.28,4.94-5.03,9.54-8.49,13.78l-1.9,2.33-1.81,2.2-6.44,6.27-2.8,2.35-1.32,1.01-1.84,1.37-2.08,1.45-2.34,1.5-3.02,1.74-5.77,2.93c-.32.16-.83.18-1.17.1l-1.12-1.38c3.8-1.59,7.42-3.43,10.88-5.7l1.74-1.14,1.62-1.1,4.72-3.72,2.5-2.13,4.53-4.49,1.07-1.24,3.95-4.88,1.95-2.77,1.46-2.32.49-.77,1.42-2.54c2.96-5.29,5.15-10.83,6.67-16.68.07-.29.12-.48.25-.74l.93-4.46.44-2.73.36-2.72.27-2.09.11-3.93.19-1.77.4-.17.61-.1.55-.04h-.01Z"/>
  <path class="cls-27" d="M220.97,167.02l-2.36-2.84c.72.16,1.34.03,2.04-.17l1.88-.53c4.39-1.24,8.35-3.36,12.18-5.87l1.88-1.38,1.3-.99,3.02-2.57,2.29-2.29,2.38-2.82,1.06-1.43c3.32-4.45,5.76-9.35,7.39-14.66l1.57-6.51,3.07-1.35c-1.04,8.76-4.33,17.1-9.56,24.23l-1.5,1.93-1.97,2.33-3.32,3.33-2.11,1.77-2.01,1.6-2.72,1.9-1.78,1.09c-3.98,2.42-8.32,3.95-12.73,5.23h0Z"/>
  <path class="cls-50" d="M354.17,147.37l1.16,1.57c-.22.14-.42.49-.5.88-2.38,11.17-6.12,21.85-11.01,32.21-3.66,7.76-8.01,15.07-12.84,22.07l-1.23,1.69-.97,1.33-1.24,1.65-1.17,1.52-1.62,2.02-2.19,2.64-2.05,2.39-2.4,2.59-6.16,6.31-1.82,1.88-1.4-1.89.33.15,2.43-2.32,5.42-5.5,2.48-2.73,1.52-1.76,2.78-3.36,1.45-1.85c9.66-12.35,17.23-26.15,22.59-40.96,2.43-6.63,4.26-13.35,5.7-20.22l.32-.46.42.15Z"/>
  <path class="cls-30" d="M352.44,145.69l.71.58.41.33.19.59-.32.46c-1.44,6.88-3.28,13.6-5.7,20.23-5.35,14.81-12.93,28.6-22.59,40.96l-1.45,1.85-2.78,3.36-1.52,1.76-2.48,2.73-5.42,5.49-2.43,2.32-.33-.14-.97-1.33c.1-.02.44-.2.54-.29l3.42-3.34,3.34-3.42,4.16-4.65,3.06-3.67,2.55-3.28c11.38-15.03,19.73-32,24.7-50.17l.8-3.1,1.69-7.4.42.13h0Z"/>
  <path class="cls-28" d="M351.57,144.5l.8.74.06.44-.42-.12-1.69,7.39-.8,3.1c-4.97,18.17-13.32,35.14-24.7,50.17l-2.55,3.28-3.06,3.67-4.16,4.65-3.34,3.42-3.42,3.34c-.1.1-.44.28-.55.29l-.91-1.23,1.02-1.11,3.81-3.87,3.48-3.63,1.48-1.77,1.63-1.84,1.32-1.58,3.41-4.27,1.17-1.52,1.07-1.47c12.52-17.19,21.36-37.88,25.2-58.88l.3.03.85.77h0Z"/>
  <path class="cls-5" d="M345.11,137.99c.18.24.49.53.75.72l.6.79-.28.02c-.07.01-.05.24-.07.37-2.49,15.47-7.6,30.27-14.96,44.01l-1.96,3.51c-3.77,6.73-8.16,12.97-13.1,18.93l-2.01,2.42-3.71,4.18-6.61,6.52-1.11-1.52c.1,0,.45-.2.57-.31l4.99-5.08,2.81-3.02,1.91-2.29,2.3-2.71,1.35-1.72c14.66-18.65,24.26-40.81,27.88-64.3.02-.13.2-.54.28-.56l.37.04h0Z"/>
  <path class="cls-91" d="M346.46,139.5l.52.26,1.22,1.25-.31.05c-.06,0-.14.22-.16.34-3.55,20.46-11.47,39.92-23.3,56.94l-3.31,4.59-2.28,2.94-1.71,2.1-2.45,2.91-2.46,2.77-2.06,2.15-4.71,4.76c-.18.19-.77.07-.95-.08l-.76-1.02,6.61-6.52,3.71-4.18,2.01-2.42c4.94-5.96,9.33-12.2,13.1-18.93l1.96-3.51c7.36-13.74,12.46-28.54,14.96-44.01.02-.12.01-.36.07-.37l.3-.02h0Z"/>
  <path class="cls-21" d="M343.73,136.87c.11.06.3.23.39.33l.61.74c-.07.02-.26.43-.28.56-3.62,23.49-13.22,45.65-27.88,64.3l-1.36,1.72-2.3,2.71-1.91,2.29-2.81,3.02-4.99,5.08c-.11.11-.46.31-.57.32l-1.15-1.56c.11-.01.44-.19.53-.28l3.57-3.51,1.85-2.02,4.1-4.54,1.66-1.97,1.64-2.06c8.58-10.74,15.29-22.73,20.29-35.56l1.3-3.58,1.54-4.62c2.39-7.16,3.95-14.45,4.92-21.85l.85.48h0Z"/>
  <path class="cls-61" d="M356.69,150.71c-2.65,10.94-6.22,21.66-11.11,31.9-2.74,5.73-5.56,11.22-9.08,16.47l-4.39,6.56-1.78,2.48-1.05,1.41-2.73,3.46-1.72,2.11-2.12,2.5-4.14,4.52-6.55,6.5-1.01.68-.88-1.19,1.82-1.88,6.16-6.31,2.4-2.59,2.05-2.39,2.19-2.64,1.62-2.02,1.17-1.52,1.24-1.65.97-1.33,1.23-1.69c4.83-6.99,9.19-14.32,12.84-22.07,4.88-10.36,8.63-21.05,11.01-32.21.08-.38.28-.73.5-.88l1.36,1.78h0Z"/>
  <path class="cls-39" d="M341.65,135.25l1.3.94-.07.21c-.97,7.4-2.53,14.69-4.92,21.85l-1.54,4.62-1.3,3.58c-5,12.83-11.71,24.82-20.29,35.56l-1.64,2.06-1.66,1.97-4.1,4.54-1.85,2.02-3.57,3.51c-.09.08-.42.27-.53.28l-1.24-1.68.38.04c.08.02.23-.18.31-.26l2.6-2.43,3.61-3.86,2.1-2.3,1.58-1.89,2.52-3.07,5.01-6.72c12-17.47,19.84-37.23,22.74-58.32.03-.22.05-.49.15-.53l.41-.12h0Z"/>
  <path class="cls-57" d="M286.69,117.41l6.92-.02h1.35v.2h-6.74c-.15,0-.51.1-.53.15l-.2,4.09c-.28,5.71-1.18,11.23-2.71,16.74l-2.43,7.39c-2.23,6.02-5.26,11.57-8.84,16.89l-1.15,1.54-1.23,1.64-1.62,2.02-2.47,2.91-5.76,5.77-1.13.98-2.21,1.86c-5.24,4.43-11.44,7.86-17.4,10.96h-.19s-1.3-1.58-1.3-1.58l1.39-.63c5.07-2.27,9.82-5.03,14.17-8.44l1.73-1.36,2.59-2.22,1.48-1.2,3.55-3.56,2.95-3.2,1.45-1.8,1.72-2.14.94-1.21c5.93-8.22,10.16-17.45,12.58-27.33.97-3.97,1.7-7.82,1.95-11.89l.13-2.15.16-4.22-.04-.17.89-.02h0Z"/>
  <path class="cls-1" d="M339.92,133.9l-.25.09c-.06.02-.12.14-.21.3-1.68,13.21-5.36,26.06-10.91,38.22-3.9,8.7-8.81,16.75-14.41,24.38l-3.05,3.9-1.72,2.11-2.62,2.96-1.38,1.69-6,5.94-1.39-1.89.58.1,6.13-6.17,1.42-1.69,2.39-2.8c15.72-18.94,25.82-41.93,29.05-66.39l.47-2.16,1.9,1.41Z"/>
  <path class="cls-15" d="M339.92,133.9l1.73,1.35-.41.11c-.09.03-.11.31-.15.53-2.9,21.08-10.74,40.84-22.74,58.32l-5.01,6.72-2.51,3.07-1.59,1.89-2.1,2.3-3.62,3.86-2.6,2.43c-.07.07-.23.28-.31.26l-.38-.04-.89-1.2,6-5.94,1.38-1.69,2.62-2.96,1.72-2.1,3.05-3.9c5.6-7.62,10.51-15.68,14.41-24.38,5.54-12.16,9.23-25.02,10.91-38.23.09-.16.16-.28.21-.3l.28-.1h0Z"/>
  <path class="cls-32" d="M338,132.5l-.47,2.16c-3.23,24.46-13.32,47.45-29.05,66.4l-2.39,2.8-1.42,1.7-6.12,6.17-.59-.11-.97-1.33c.1.06.53-.02.64-.13l3.19-3.26,1.4-1.52,3.02-3.33,2.3-2.71,1.6-2,3.17-4.19c8.04-11.14,14.47-23.42,18.45-36.61l1.44-4.77c1.8-5.97,2.66-12.05,3.62-18.23l.47-2.18,1.71,1.14h0Z"/>
  <path class="cls-65" d="M336.3,131.34l-.47,2.19c-.96,6.17-1.82,12.25-3.62,18.23l-1.44,4.77c-3.98,13.19-10.41,25.48-18.45,36.61l-3.17,4.2-1.6,1.99-2.3,2.71-3.02,3.33-1.4,1.52-3.19,3.26c-.11.11-.54.18-.64.13l-1.14-1.55c.27.1.73-.03.94-.26l2.85-2.97,3.1-3.44,2.64-2.95.74-.99,4.1-5.3.88-1.24,2.34-3.41,2.39-3.61,1.14-1.9,1.33-2.27,2.39-4.41,3.88-8.17,1.38-3.44.7-1.76,1.2-3.23,1.3-3.97c1.81-5.53,3.22-11.08,4.04-16.86l.81-5.74.52-2.61,1.77,1.14h0Z"/>
  <path class="cls-51" d="M218.61,164.18l-1.72-2.15,1.59-.51,1.66-.41,4.45-1.52,2.41-1.06,1.51-.76,2.36-1.31,3.38-2.21,2.01-1.6,1.72-1.38c1.11-.89,2.14-1.97,3.05-3.04l2.23-2.62.91-1.19,1.71-2.53,1.21-2.01,2.38-4.77c1.32-2.64,1.99-5.49,2.55-8.39l3.55-1.78-1.57,6.51c-1.64,5.31-4.07,10.22-7.39,14.66l-1.06,1.43-2.38,2.82-2.29,2.29-3.02,2.58-1.3.99-1.88,1.38c-3.83,2.51-7.79,4.62-12.18,5.87l-1.88.53c-.67.21-1.29.34-2.01.18h0Z"/>
  <path class="cls-75" d="M333.61,129.61l-.49.47c-2.21,22.06-10.27,43.11-23.19,61.08l-2.56,3.41-1,1.3-1.98,2.43-1.88,2.18-2.33,2.66-4.89,4.81-1.15-1.56,2.44-2.26,3.41-3.51,1.2-1.48,2.6-2.99,1.44-1.83c14.6-18.54,23.69-40.89,26.05-64.42.06-.59.17-1.01.41-1.46l1.92,1.17h0Z"/>
  <path class="cls-62" d="M331.68,128.45c-.24.45-.35.87-.41,1.46-2.36,23.53-11.44,45.88-26.05,64.42l-1.44,1.83-2.6,2.99-1.2,1.47-3.41,3.51-2.44,2.26-1.13-1.53c.49-.23.98-.59,1.35-.99l2.15-2.33,4.2-4.6,1.92-2.32c15.3-18.8,24.72-41.8,26.92-66.06.05-.49.14-.82.42-1.07l1.72.96h0Z"/>
  <path class="cls-55" d="M328.25,126.57l1.71.91c-.28.26-.37.58-.42,1.08-2.19,24.25-11.62,47.25-26.92,66.06l-1.92,2.32-4.21,4.6-2.15,2.32c-.36.4-.86.77-1.35.99l-.99-1.34,3.29-3.34,1.66-1.8,2.8-3.16,1.81-2.22,1.36-1.74c6.54-8.4,11.85-17.54,15.98-27.38l1.97-5.03c3.79-10.19,6-20.78,6.98-31.62l.05-.6c.02-.08.32.01.35-.05h0Z"/>
  <path class="cls-54" d="M328.25,126.57c-.03.06-.33-.04-.34.04l-.05.6c-.98,10.83-3.19,21.43-6.98,31.62l-1.97,5.03c-4.12,9.84-9.44,18.98-15.98,27.38l-1.36,1.74-1.81,2.21-2.8,3.17-1.66,1.8-3.29,3.34-1.15-1.56,4.99-5.1,3.2-3.69,1.29-1.6,1.53-1.95c13.48-17.59,21.73-38.59,23.95-60.7l.46-3.33,1.97,1h0Z"/>
  <path class="cls-26" d="M326.27,125.59l-.46,3.33c-2.21,22.11-10.46,43.11-23.95,60.71l-1.53,1.94-1.29,1.6-3.19,3.69-4.99,5.1-1.14-1.55,6.07-6.27,2.05-2.42c7.15-8.48,12.85-18.01,17.22-28.26l3.07-7.95c3.24-9.35,5.23-18.99,6.04-28.88.06-.73.11-1.28.4-1.85l1.7.81Z"/>
  <path class="cls-81" d="M323.05,124.1l1.53.69c-.29.58-.34,1.12-.4,1.85-.81,9.89-2.8,19.53-6.04,28.88l-3.07,7.95c-4.36,10.24-10.07,19.77-17.22,28.25l-2.05,2.43-6.07,6.27-1.37-1.86.64.24,3.61-3.82,1.88-2.16,2.38-2.8,1.46-1.83c7.18-9.04,12.8-19.11,16.87-29.95l3.17-9.55c2.07-7.26,3.3-14.52,3.97-21.97l.14-2.46.58-.15h0s-.01-.01-.01-.01Z"/>
  <path class="cls-9" d="M321.13,123.31l1.91.8-.58.15-.14,2.46c-.67,7.46-1.9,14.72-3.96,21.97l-3.17,9.55c-4.07,10.84-9.69,20.92-16.87,29.95l-1.45,1.83-2.38,2.81-1.88,2.15-3.61,3.82-.64-.24-.71-.97,2.79-3.05,3.64-4.04,1.66-2,1.53-1.95c13.39-17.09,21.35-37.86,23.18-59.55l.23-3.28c.01-.08.07-.33.15-.34l.3-.07h0Z"/>
  <path class="cls-78" d="M321.13,123.31l-.32.07c-.07.01-.14.26-.15.34l-.23,3.28c-1.83,21.69-9.79,42.46-23.18,59.55l-1.53,1.95-1.66,2-3.64,4.04-2.79,3.05-1.4-1.91c.23.1.71.01.87-.17l3.41-3.76,2.42-2.77,1.64-2.01,1.43-1.84c4.34-5.57,7.99-11.47,11.16-17.82,1.68-3.38,3.21-6.6,4.49-10.12l.41-1.11,2.28-6.8c2.07-7.08,3.57-14.15,4.17-21.51l.21-2.68.29-2.57,2.12.79h0Z"/>
  <path class="cls-58" d="M316.33,121.55l1.72.6-.33.05c-.07.01-.06.25-.06.36l-.18,2.51-.21,2.52c-.64,7.47-2.14,14.69-4.26,21.85l-1.02,3.07-.39,1.19-.88,2.56c-3.43,8.89-7.9,17.23-13.39,25.01l-1.15,1.56-1.23,1.66-1.16,1.51-2.1,2.52-1.85,2.19-4.18,4.17-.88-1.03-.24-.5,1.16-1.01,4.6-4.99,1.57-1.91,1.59-2.04,1.17-1.56c7.03-9.36,14.06-22.92,16.98-34.24l.41-1.58c1.57-6.08,2.94-12.14,3.42-18.42l.2-2.71.21-3.16c.02-.1.59-.21.48-.18h0Z"/>
  <path class="cls-3" d="M314.6,120.99l1.73.56c.11-.03-.46.08-.46.16l-.21,3.16-.2,2.71c-.47,6.28-1.85,12.34-3.42,18.42l-.41,1.58c-2.92,11.33-9.95,24.89-16.98,34.24l-1.17,1.56-1.59,2.04-1.57,1.91-4.6,4.99-1.16,1.01-1.17-1.53c.3-.04.66-.3.87-.53l2.22-2.41,2.43-2.77,1.91-2.32,1.36-1.74c4.46-5.71,8.14-11.85,11.34-18.42,3.68-7.52,6.36-15.4,8.12-23.55l.28-1.49c.9-4.84,1.77-9.61,1.97-14.52l.12-2.98.59-.08h0Z"/>
  <path class="cls-11" d="M314.6,120.99l-.58.08-.12,2.98c-.2,4.91-1.07,9.68-1.97,14.52l-.28,1.49c-1.76,8.15-4.44,16.03-8.12,23.55-3.21,6.56-6.88,12.7-11.34,18.42l-1.36,1.74-1.91,2.32-2.43,2.77-2.22,2.41c-.21.23-.57.49-.87.53l-.99-1.34,3.06-3.21,2.67-3.09,1.82-2.23c4.64-5.72,8.39-12,11.69-18.65,5.01-10.08,8.15-20.85,9.73-31.98l.38-4.48.31-4.45c.04-.6.18-1.41.4-1.98l2.13.6h0Z"/>
  <path class="cls-86" d="M311.14,120.02l1.31.35c-.21.58-.35,1.39-.4,1.99l-.3,4.45-.39,4.48c-1.57,11.13-4.72,21.91-9.72,31.98-3.3,6.65-7.05,12.93-11.69,18.65l-1.82,2.23-2.67,3.09-3.06,3.21-1.14-1.55,3.89-4.08,1.93-2.32c4.85-5.81,8.9-12.14,12.36-18.95,5.94-11.68,9.47-24.41,10.62-37.43l.14-2.2.16-3.1c.01-.19.01-.6.16-.64l.62-.16h0Z"/>
  <path class="cls-96" d="M311.14,120.02l-.63.17c-.15.04-.15.44-.16.64l-.16,3.1-.14,2.2c-1.15,13.02-4.68,25.75-10.62,37.43-3.46,6.81-7.51,13.14-12.36,18.95l-1.93,2.32-3.89,4.08-1.15-1.55,2.9-2.77.86-1.19,2.34-2.69,1.36-1.74c5.51-7.03,9.95-14.77,13.36-23.06l2.91-7.89.66-2.27c2.51-8.58,3.83-17.39,4.13-26.31l2.52.58h0Z"/>
  <path class="cls-29" d="M358.21,152.9l-.59.18c-.14.05-.17.45-.22.62l-2.16,8.05-1.92,5.74-1.49,4.29c-3.23,8.46-7.17,16.52-11.76,24.34l-4.16,6.61-2.6,3.74-3.82,5.2-.95,1.18-2.66,3.3-2.3,2.69-3.71,4.17-7.2,7.2c-.22.22-.42.53-.42.78l-1.23-1.7,1.01-.68,6.55-6.5,4.14-4.52,2.12-2.5,1.72-2.11,2.73-3.46,1.05-1.41,1.78-2.48,4.39-6.55c3.52-5.26,6.34-10.74,9.08-16.48,4.89-10.24,8.46-20.96,11.11-31.9l1.52,2.2h0Z"/>
  <path class="cls-74" d="M308.63,119.43c-.3,8.93-1.62,17.73-4.13,26.31l-.67,2.27-2.91,7.89c-3.41,8.29-7.86,16.03-13.36,23.06l-1.36,1.74-2.34,2.69-.86,1.19-2.89,2.78-1.12-1.5.75-.66,3.76-4.12,1.47-1.81,1.44-1.83,1.06-1.44,1.06-1.46c11.3-15.62,17.69-35.33,18.16-54.62l.17-.88,1.78.39h0s-.01,0-.01,0Z"/>
  <path class="cls-80" d="M306.86,119.04l-.17.88c-.47,19.28-6.86,39-18.16,54.62l-1.06,1.46-1.06,1.44-1.44,1.83-1.47,1.81-3.76,4.12-.75.66c-.28-.36-.93-.93-1.33-1.14l1.83-1.91,2.08-2.29,1.07-1.31c5.78-7.14,10.7-14.94,14.33-23.43,4.59-10.72,7.33-22.07,7.78-33.73l.2-3.36,1.91.35h0Z"/>
  <path class="cls-6" d="M279.42,118.17l.08,2.84c.51.03.51.17.07.22-.1.09-.16.15-.09.17l.52.11-.54.23c.48.02.65.25.02.28-.08.43-.02,1.04.16,1.49l-.4.57c-.49-.09-.01,0,.08.02l.5.09-.79.63.47.24c.09.05-.05.31-.15.34l-.37.15c.24.1.53.2.51.32l-.05.33-.31.07c-.07.03-.11.21-.14.34l-.23.92c-.03.89-.08,1.68-.37,2.64-.07-.05.3.22.46.32l-.33.29c-.15.23-.41.91-.49,1.3l-.43,2,.49.24-.26.28-.6.59-.76,3.22c-.09.38-.23.68-.48,1.04l.58.22-.26.31c-.17.08-.62.32-.64.53l-.06.66-.53,1.18c-.2.45-.31,1.07-.21,1.36l.1.22c-.08-.06-.32-.13-.37-.05l-.17.24-.4.9-.62,1.28-.47.83.45.48s-.12.05-.17.06c-.65.18-.77.86-.64,1.49l-.14.1c-.66.11-.77.82-.61,1.45l-.09.06-.65.36c-.03.22-.03.34-.1.37l-.43.18.49.55-.16.07c-.86.44-1.27,1.53-1.79,2.42-.28.49-.47.77-.31,1.29l-.23.17-1.01.96c-.19.19-.4.41-.4.59l.16.6-.23.19-.61.03c-.14.66-.6,1.25-1.27,1.62l.54.43-.18.25c-.07-.04-.73-.07-.71.09l.07.52s-.17.04-.2.06c-.94.58-1.41,1.55-2.51,2.68l-2.58,2.63-2.89,2.9-3.46,3.26-.75.66c-1.02.58-2.5,1.54-3.13,2.48-.03-.02-.71.04-.88.2l-1.41,1.35c-.62-.09-1.07.32-1.47.7-.12.11-.6.15-.64.31l-.12.61-.5-.41-1.07,1.06c-.62-.06-.89.33-1.34.56l-5.1,2.55c-.5.26-1.01.27-1.11.89l-.68.2-.44-.64-.69-.72-.16-.21,2.85-1.08c4.04-1.88,7.91-3.91,11.49-6.57l1.86-1.38,1.32-1.02,2.42-1.97,7.68-7.69,1.26-1.59,1.05-1.29.83-1.13c6.46-8.79,10.7-19.03,12.52-29.86l.21-1.46.36-2.81.39-6.36.23-.18h.17s.97.02.97.02l.02-.04Z"/>
  <path class="cls-69" d="M225.21,172.16l-1.38-1.67,5.74-2.24c2.59-1,4.96-2.38,7.31-3.81l1.34-.82,2.86-1.97,2.11-1.69,2.04-1.81,3.15-3.18,1.73-1.93,1.64-2.03,1.06-1.41,1.79-2.65,1.09-1.78,3.2-6.4.42-1.14,1.46-4.28,1.04-3.77.78-4.12.45-3.49,1.79-.62-.23,2.09-.08,1.99-.33.85-.35,2.51-.39,1.85-.35,1.17-.25,1.41-.31.84-.39,1.11-.4,1.18-.38,1.12-.41,1.09c-.26.69-.64,1.28-.83,1.97l-2.48,4.94-1.2,2-.82,1.26-.64.97-.85,1.21-2.83,3.62-1.4,1.59-.63.69-1.71,1.71-.61.56-2.15,1.94c-1.1,1-2.18,1.85-3.43,2.67l-1.51.99-1.45,1.01-5.47,3.02-1.54.73-2.66,1.18-2.59.94c-.4.14-.71.3-.93.58l-.02.02Z"/>
  <path class="cls-12" d="M269.43,120.04c-.12.09-.49.48-.49.68l-.03,1.6-.47,3.77c-1.2,9.6-4.94,18.58-10.47,26.55l-1.14,1.56-1.45,1.83-1.48,1.79c-1.86,2.24-3.9,4.25-6.21,6.1l-1.91,1.53-1.73,1.33-1.22.89-5.07,3.21-5.23,2.64-3.31,1.32c-.49.2-1.07.34-1.56.3l-.96-1.17,3.01-1.15,2.45-1.05,4.83-2.41.82-.56,1.81-1.06,1.97-1.29,3.4-2.55,2.19-1.68,5.55-5.58.91-1.14,3.01-4.03.93-1.32,1.09-1.79,1.29-2.21,2.43-4.79c.03-.27.14-.45.26-.75l.72-1.87.64-1.39c.18-.82.46-1.69.81-2.48l.34-1.5.37-1.36.43-1.73.36-1.4.39-2.82.32-2.05c.17-1.08.15-2.27.05-3.34l2.33-.64h.02Z"/>
  <path class="cls-94" d="M301.1,118.16h1.15l.24.14c-.19-.03-.6.16-.72.26l-.21,5.6-.84,7.48c-.99,6.33-2.39,12.48-4.76,18.42l-1.89,4.71c-2.96,7.4-7.26,14.03-12.09,20.36l-1.64,2.03-2.02,2.4-3.89,4c-.17.18-.4.53-.4.73-1.23.33-2.18,1.2-2.94,2.24l-1.06,1.45c-6.22,5.34-13.06,9.97-20.5,13.66l-.95-1.14c.14.05.69.03.89-.07l2.33-1.27,4.52-2.6,4.77-3.12,2.28-1.73,1.32-.99,1.93-1.52,2.09-1.78,1.15-.98,6.69-6.71,2.16-2.47,1.05-1.29c5.11-6.24,9.39-12.98,12.62-20.37l1.48-3.39,1.31-3.47,1.43-4.33.82-2.77.35-1.4.43-1.6,1.13-5.72.43-2.98.38-2.68.21-2.76.22-2.27-.04-4.07h.58s0,0,0,0Z"/>
  <path class="cls-89" d="M348.2,141.01l2.55,2.45-.02.28-.3-.03c-.31-.5-.86-1.05-1.53-1.61l-1.92,8.87-.56,2.3-1.38,4.98-3.05,9.11c-4.73,12.83-11.29,24.72-19.41,35.68l-2.19,2.86-1.33,1.7-2.11,2.52-2.3,2.68-2.98,3.2-6.04,6.02-1.12-1.53c.18.16.77.27.95.08l4.71-4.76,2.06-2.15,2.46-2.77,2.46-2.91,1.71-2.1,2.28-2.94,3.31-4.59c11.83-17.02,19.74-36.47,23.3-56.94.02-.12.09-.34.16-.34l.29-.06h0Z"/>
  <path class="cls-59" d="M276.72,118.48l-.7.41c-.27,13.64-4.67,26.86-12.49,37.98l-1.8,2.43-1.51,1.79c-.28.32-.57.72-.77,1.14l-6.34,6.34c-.8.4-1.35,1.04-2.05,1.59l-2.2,1.77-5.29,3.61-2.79,1.62-2.98,1.61-1.83.84-2.03.91c-.53.23-1.14.3-1.67.18l-.97-1.17c.78.52,1.66.04,2.31-.53l1.39-.46,1.44-.69,1.42-.69,1.53-.79,1.82-1.07,2.99-1.81,1.98-1.32,1.42-1.05,1.07-.88,1.64-1.23,2.52-2.28.85-.66,2.61-2.6,2.66-2.85,1.34-1.64.86-1.22,1.57-1.92c.21-.49.47-1.01.79-1.45l.86-1.23.68-1.09,1.36-2.54,1.14-1.99,1.68-3.66.82-2.02.24-.78.62-1.4.82-2.52.53-1.94.39-1.6.41-1.67.39-1.8.34-1.82.38-3.1.29-1.34.09-3.1.2-1.93,1.97-.38h0Z"/>
  <path class="cls-13" d="M333.61,129.61l.94.59-.52,2.61-.81,5.74c-.82,5.78-2.23,11.34-4.04,16.86l-1.3,3.97-1.2,3.23-.7,1.76-1.38,3.44-3.88,8.17-2.39,4.41-1.33,2.27-1.14,1.9-2.39,3.61-2.34,3.41-.88,1.24-4.1,5.3-.74.99-2.64,2.95-3.1,3.44-2.85,2.97c-.21.22-.68.36-.94.26l-.58-.79,4.89-4.81,2.33-2.66,1.89-2.18,1.98-2.43,1-1.3,2.57-3.41c12.91-17.96,20.97-39.01,23.18-61.08l.47-.46h0Z"/>
  <path class="cls-79" d="M318.06,122.15l.96.35-.29,2.57-.21,2.68c-.59,7.36-2.1,14.43-4.17,21.51l-2.28,6.8-.41,1.11c-1.29,3.52-2.81,6.74-4.49,10.12-3.17,6.34-6.82,12.24-11.16,17.82l-1.43,1.84-1.64,2.01-2.42,2.77-3.41,3.76c-.17.18-.64.28-.88.17l-.58-.8,4.18-4.17,1.85-2.19,2.1-2.52,1.16-1.51,1.23-1.65,1.15-1.56c5.49-7.78,9.95-16.13,13.39-25.01l.87-2.57.4-1.19,1.02-3.06c2.13-7.16,3.64-14.39,4.27-21.85l.21-2.52.18-2.52c.01-.11-.01-.35.07-.36l.33-.03h0Z"/>
  <path class="cls-14" d="M252.03,126.73c-.56,2.89-1.24,5.74-2.55,8.39l-2.38,4.77-1.21,2.01-1.71,2.53-.91,1.19-2.23,2.62c-.91,1.07-1.94,2.15-3.05,3.04l-1.72,1.38-2.01,1.6-3.38,2.21-2.36,1.31-1.51.76-2.41,1.06-4.45,1.52-1.66.41-1.59.51-.17-.2,1.47-2.52c.69.08,1.62-.05,2.45-.36l3.99-1.55,5.49-2.8,2.02-1.29,1.75-1.31,1.31-.97,4.04-3.85,2.12-2.3.9-1.21,2.41-3.57,2.46-4.6.91-2.11c.74-1.74,1.3-3.54,1.59-5.37l2.39-1.3h0Z"/>
  <path class="cls-93" d="M358.21,152.9l.42.48c-2.91,11.58-6.95,22.85-12.38,33.57l-3.59,6.83-1.05,1.83-1.15,1.93-1.22,2.01-2.12,3.28-.98,1.49-2.47,3.51-.89,1.23-1.39,1.85-.85,1.11-2.14,2.8-1.71,2.03-2.14,2.58-3.5,3.78-.99,1.15-5.6,5.55-1.9,1.52-.31-.42c0-.25.19-.56.41-.78l7.2-7.2,3.71-4.17,2.31-2.69,2.66-3.3.95-1.18,3.83-5.2,2.6-3.74,4.17-6.61c4.59-7.82,8.52-15.88,11.76-24.33l1.5-4.29,1.92-5.73,2.15-8.05c.05-.17.08-.57.22-.62l.57-.22h0Z"/>
  <path class="cls-95" d="M267.09,120.68c.1,1.07.11,2.26-.06,3.33l-.32,2.05-.39,2.83-.36,1.39-.43,1.73-.37,1.36-.34,1.5c-.34.79-.64,1.67-.81,2.48l-.64,1.39-.72,1.87c-.11.3-.23.48-.26.76l-2.43,4.79-1.29,2.21-1.09,1.79-.93,1.31-3.01,4.03-.92,1.14-5.55,5.58-2.19,1.68-3.4,2.55-1.97,1.29-1.8,1.06-.82.56-4.83,2.41-2.45,1.05-3.01,1.15-.95-1.16c6.12-1.84,12.41-5.24,17.49-9.11l1.77-1.35,3.01-2.74c.58-.53,1.14-1.02,1.67-1.61l2.81-3.12,1.57-2.02,2.12-2.96,1.46-2.34,2.27-4.08,2-4.48c1.83-4.12,2.84-8.4,3.46-12.85l.43-3.05.12-2.07,1.16-.35Z"/>
  <path class="cls-18" d="M302.5,118.29l1.15.31-.57-.11-.2,4.12c-.61,12.21-3.64,24.1-8.81,35.2-3.02,6.47-6.84,12.42-11.1,18.07l-1.46,1.83-2.4,2.79-3.15,3.56c-.52-.03-1.41.09-1.91.22.01-.21.23-.56.41-.73l3.89-4,2.02-2.4,1.64-2.03c4.84-6.32,9.14-12.97,12.09-20.36l1.89-4.71c2.38-5.93,3.77-12.09,4.76-18.42l.85-7.48.21-5.6c.08-.09.5-.29.69-.26h0Z"/>
  <path class="cls-31" d="M272.67,119.26l-.51.48c.13,1.44-.15,2.83-.31,4.22l-.38,3.36-.4,1.86-.08,1.21c-.29.47-.3.83-.41,1.34l-.45,1.99-.33,1.23c-.24.42-.26.92-.4,1.38l-.81,2.56-.38.81-.32.95-.43.99c-.15.34-.25.65-.32.97l-3.14,6.34-.85,1.56-.78,1.2-.85,1.34-1.66,2.29-.79,1.1c-1.78,2.47-3.64,4.8-5.93,6.83l-2.09,1.84-1.06.89-1.96,1.67-3.01,2.23-1.4,1.03-2.11,1.33-1.58.95-1.94,1.08-1.42.72-1.68.85-1.21.49-2.27,1.03c-.68.31-1.23.42-1.85.03l-.34-.42,7-3.07c4.62-2.38,8.82-5.18,12.74-8.56l1.99-1.71,3.84-3.81.9-1.2,1.88-2.18,1.25-1.64c6.63-9.11,10.75-19.8,11.91-31.05l.18-4.12,1.76-.39h0Z"/>
  <path class="cls-63" d="M304.95,118.68l-.2,3.36c-.44,11.66-3.19,23.01-7.78,33.73-3.63,8.49-8.55,16.29-14.33,23.43l-1.07,1.32-2.09,2.29-1.83,1.91c-.5-.27-1.2-.48-1.72-.66.35.05.84-.08,1.11-.38l3.1-3.46,2.2-2.6,1.35-1.73c3.1-3.95,5.76-8.12,8.19-12.55,7.55-13.73,11.51-29.07,11.73-44.74l1.34.08Z"/>
  <path class="cls-8" d="M277.09,118.41l.76-.06-.69.27-.2,2.98-.27,3.22-.4,3.3-.29,1.43-.28,1.36-.42,2.44-.35,1.03-.37,1.45-.45,1.73-.33,1.08-.39,1.15-.36,1.02-.62,1.62-.35.92-.39.9-1.25,2.85-1.47,2.92-1.21,2.1-.74,1.43-.77,1.11-.81,1.26-1.56,2.3-1.21,1.68-.83.86-1.27,1.61c-.23.3-.4.52-.76.81l-.31.42-.87.9-4.6,4.57-1.54,1.19-2.38,2.02-3.02,2.17-2.28,1.51-3.39,2.08-1.16.59-3.43,1.7-2.8,1.26-.83.28-.96-1.15c.54.12,1.15.06,1.67-.18l2.03-.92,1.83-.84,2.98-1.61,2.79-1.62,5.29-3.61,2.2-1.77c.7-.56,1.25-1.19,2.06-1.59l6.33-6.34c.19-.42.49-.82.77-1.15l1.51-1.78,1.8-2.43c7.82-11.11,12.21-24.34,12.48-37.97l.7-.41.38-.06.03-.03Z"/>
  <path class="cls-90" d="M281.51,117.81l.96-.04-.4.17-1.07.24c-.03,10.15-2.27,19.91-6.32,29.15-1.9,4.33-4.35,8.29-6.93,12.21l-.48.73-1.25,1.61-1.54,1.92-2.16,2.44-4.67,4.75-2.28,2.13-1.71,1.38-1.94,1.51-1.22.9-3.68,2.49-2.11,1.28-3.85,2.15-3.43,1.58-1.53.71-.8-.96.68-.2,1.9-.68c4.45-2.1,8.69-4.38,12.58-7.39l2.16-1.68,1.61-1.27,3.88-3.43,2.01-2.02,2.97-3.36,1.96-1.89-.12-.71s.18-.05.2-.05l.64-.61.18-.25,1.41-1.47-.06-.61.22-.19.96-1.16c.1-.1.45-.24.44-.39l-.14-.6.23-.17.99-1.13c.05-.27.22-.85.42-1.06l.78-.86-.1-.65.15-.08.49-.54c.17-.19.24-.55.2-.92l.08-.06.36-.49c.07-.1.36-.23.35-.35l-.1-.6.14-.1.67-.72-.04-.77s.14-.04.17-.06l.69-.76c-.36-.44.03-.79.36-1.02-.05-.69.26-1.4.88-1.64l-.36-.27-.1-.23.79-.83-.05-.61c-.01-.15.33-.33.42-.39-.09-.47-.01-.81.36-1.12l-.06-.76.26-.31.22-.02-.02-.36-.03-.56c-.01-.14.32-.26.42-.32l-.04-.67c-.01-.17.27-.38.4-.49-.06-.43.09-.83.39-1.11l-.19-.24c-.07-.09.17-.38.17-.49l-.07-.8.25-.28.24-.05c.08-.02-.02-.29-.05-.38l.23-1.06c.15-.68.21-1.41.01-2.06l.33-.29.24-.06c.15-.04-.24-.77-.01-.92l.46-.3c-.24-.1-.51-.24-.47-.38s.19-.25.44-.42l-.21-.24c-.07-.09.1-.33.15-.45l-.02-1.52.05-.33c.02-.11-.27-.22-.51-.31l.37-.15c.1-.04.24-.3.15-.34l-.46-.24.78-.64-.5-.09c-.09-.02-.58-.1-.08-.02l.4-.57c-.18-.45-.24-1.07-.16-1.49.64-.03.46-.26-.02-.28l.54-.23-.52-.11c-.07-.02,0-.08.09-.17.44-.05.44-.18-.07-.22l-.08-2.84.18-.19.39.03,1.14-.19.38-.02.04-.02Z"/>
  <path class="cls-92" d="M218.75,158.4l1.8-2.88c.42.02.9-.1,1.37-.27l.88-.32,2.88-1.37,1.27-.64,3.67-2.27,1.15-.83,1.91-1.47,4.9-4.93,1.67-2.13c2.33-2.98,3.92-6.23,5.28-9.74l.19-1.16,2.96-1.83-.4.99c-1.5,5.14-3.79,9.92-7.26,14.05l-2.61,3.11-1.8,1.72c-5.05,4.85-11.24,8.2-17.86,9.97h0Z"/>
  <path class="cls-17" d="M265.94,121.01l-.12,2.07-.43,3.05c-.62,4.45-1.63,8.73-3.46,12.85l-2,4.48-2.27,4.09-1.46,2.34-2.12,2.96-1.57,2.02-2.81,3.12c-.53.59-1.08,1.07-1.67,1.6l-3.01,2.74-1.77,1.34c-5.08,3.86-11.37,7.27-17.49,9.11l-.54-.64c.22-.29.54-.44.93-.58l2.59-.93,2.66-1.19,1.54-.73,5.47-3.02,1.45-1.01,1.51-.99c1.25-.82,2.33-1.67,3.44-2.67l2.15-1.94.62-.56,1.71-1.71.63-.69,1.4-1.59,2.83-3.62.86-1.21.63-.97.83-1.26,1.2-2.01,2.47-4.93c.19-.69.57-1.28.83-1.97l.41-1.09.38-1.12.4-1.18.39-1.11.31-.84.26-1.42.35-1.17.39-1.85.35-2.51.33-.85.08-2,.23-2.08,1.12-.33h-.03Z"/>
  <path class="cls-31" d="M270.92,119.66l-.18,4.13c-1.16,11.25-5.28,21.93-11.91,31.05l-1.25,1.65-1.88,2.18-.9,1.19-3.84,3.81-1.99,1.71c-3.92,3.38-8.12,6.18-12.74,8.56l-7,3.07-.8-.96,1.69-.54c4.26-1.52,8.15-3.59,11.88-6.15l2.91-1.99,2.4-1.93,1.9-1.57,5.5-5.49,1.44-1.79,1.77-2.22,3.3-4.99.84-1.42,2.47-4.89.96-2.28,2.29-6.78c1.17-4.14,1.82-8.27,2.13-12.53l.07-1.58.94-.23h0Z"/>
  <path class="cls-76" d="M269.98,119.9l-.07,1.58c-.31,4.26-.96,8.4-2.13,12.53l-2.29,6.78-.96,2.28-2.47,4.89-.84,1.42-3.3,4.99-1.77,2.22-1.44,1.79-5.5,5.49-1.9,1.57-2.4,1.93-2.91,1.99c-3.73,2.55-7.62,4.62-11.88,6.15l-1.69.54-.78-.93c.48.04,1.06-.1,1.56-.3l3.31-1.33,5.23-2.64,5.07-3.2,1.22-.89,1.73-1.33,1.91-1.53c2.31-1.86,4.35-3.87,6.21-6.11l1.48-1.78,1.45-1.83,1.14-1.57c5.53-7.97,9.27-16.95,10.47-26.54l.47-3.77.03-1.6c.01-.19.38-.58.49-.68l.56-.12h0Z"/>
  <path class="cls-7" d="M242.53,132.51c.11.41.03.92-.15,1.24l-1.95,3.65-1.36,2.12-.81,1.11-1.63,2.03-4.02,4.03-1.3,1.02c-2.38,1.86-4.89,3.33-7.59,4.71l-1.1-.03,1.75-2.41,2.56-3.17c.08.13.19.19.26.14l.31-.22,1.35-.94,2.12-1.72,3.15-3.14,1.84-2.21.54-.81c.2-.31.38-.63.47-.89l-.04-.24,5.58-4.28h.02Z"/>
  <path class="cls-53" d="M245.7,130.39l-.18,1.16c-1.36,3.51-2.95,6.77-5.29,9.75l-1.66,2.12-4.9,4.93-1.9,1.48-1.15.83-3.67,2.27-1.27.63-2.88,1.37-.88.32c-.47.17-.95.29-1.36.27l2.08-3.12,1.09.03c2.71-1.38,5.21-2.85,7.59-4.71l1.3-1.03,4.02-4.03,1.64-2.03.8-1.11,1.37-2.12,1.94-3.65c.17-.32.27-.83.15-1.23l3.18-2.12h-.02Z"/>
  <path class="cls-68" d="M263.03,121.97l-.45,3.49-.78,4.12-1.04,3.77-1.46,4.28-.42,1.14-3.2,6.4-1.09,1.78-1.79,2.65-1.07,1.41-1.63,2.03-1.73,1.93-3.15,3.18-2.04,1.81-2.11,1.69-2.85,1.97-1.34.82c-2.35,1.44-4.71,2.81-7.31,3.81l-5.74,2.24-.62-.75.35-.35,5.11-1.84,6.51-3.29c1.98-1,3.7-2.23,5.45-3.58l1.09-.83,3.11-2.67,2.86-2.88,2.49-2.91.96-1.31,1.14-1.57.55-.82c5.16-7.59,8.15-16.29,9.06-25.33l1.14-.39h0Z"/>
  <path class="cls-52" d="M218.19,159.32l.57-.91c6.62-1.78,12.81-5.13,17.85-9.96l1.8-1.73,2.61-3.11c3.47-4.12,5.75-8.91,7.25-14.05l.4-.99.95-.55c-.29,1.83-.84,3.62-1.59,5.37l-.91,2.11-2.46,4.6-2.41,3.57-.9,1.21-2.11,2.3-4.04,3.85-1.3.97-1.75,1.31-2.03,1.29-5.49,2.8-3.99,1.56c-.83.32-1.77.44-2.45.36h0Z"/>
  <path class="cls-25" d="M226.94,146.83l1.55-1.73.61-.79,5.36-5.33.98-.81.76-.71.79-.44c-.1.26-.27.58-.47.89l-.54.82-1.84,2.21-3.14,3.14-2.13,1.72-1.34.94-.32.21c-.09.06-.19,0-.27-.12Z"/>
  <path class="cls-22" d="M294.38,117.59c.03,11.61-2.34,23.07-6.9,33.81l-1.33,2.94c-2.1,4.65-4.64,8.97-7.66,13.09l-1.21,1.66-1.16,1.53-1.54,1.93-2.01,2.4-6.96,7.06-1.2.92-3.56,2.98-1.74,1.33c-4.45,3.4-9.31,6.1-14.34,8.62l-1.57-1.92.64.27c6.16-2.95,11.91-6.49,17.19-10.81l2.46-2.01,7.78-7.77,2.54-3.02,1.03-1.28,3.44-4.82,1.48-2.19c3.97-6.43,7.09-13.22,9.24-20.51,1.88-6.4,3.18-12.73,3.43-19.38l.25-4.82h1.7Z"/>
  <path class="cls-66" d="M292.66,117.59l-.25,4.82c-.24,6.65-1.55,12.99-3.43,19.38-2.15,7.29-5.27,14.08-9.24,20.51l-1.48,2.19-3.44,4.82-1.03,1.29-2.54,3.02-7.78,7.77-2.46,2.01c-5.28,4.32-11.03,7.86-17.19,10.81l-.64-.26-.95-1.15c5.54-2.4,10.66-5.43,15.43-9.1l1.53-1.17,2.2-1.85c2.69-2.26,5.16-4.64,7.52-7.25l1.91-2.11,1.38-1.71,1.77-2.23,1.95-2.71.9-1.18,3.55-5.9c6.78-12.3,10.3-25.99,10.36-39.97h1.93v-.03Z"/>
  <path class="cls-85" d="M290.74,117.59c-.06,13.97-3.58,27.67-10.36,39.97l-3.55,5.9-.9,1.19-1.96,2.7-1.76,2.24-1.38,1.71-1.92,2.12c-2.35,2.6-4.83,4.99-7.51,7.25l-2.2,1.85-1.53,1.18c-4.78,3.67-9.89,6.7-15.43,9.09l-1.3-1.55.89-.15c4.51-2.18,8.76-4.62,12.85-7.49l1.45-1.06,1.94-1.52,1.51-1.21c2.88-2.3,5.56-4.77,7.96-7.57l1.96-2.28,2.01-2.42,1.15-1.52,1.15-1.55.74-1.03c9.31-13.48,14.3-29.53,14.27-45.86h1.92,0Z"/>
  <path class="cls-72" d="M285.83,117.59l-.16,4.21-.13,2.15c-.25,4.07-.98,7.92-1.95,11.89-2.42,9.88-6.65,19.11-12.58,27.33l-.94,1.21-1.72,2.15-1.44,1.8-2.96,3.2-3.55,3.56-1.48,1.2-2.59,2.21-1.73,1.36c-4.35,3.42-9.1,6.18-14.17,8.44l-1.39.62-1.4-1.69c.34.09.86.07,1.18-.09l5.77-2.94,3.01-1.74,2.35-1.49,2.08-1.45,1.84-1.37,1.32-1.01,2.8-2.35,6.44-6.27,1.81-2.21,1.9-2.33c3.46-4.24,6.21-8.84,8.49-13.78l1.16-2.51.62-1.52c3.04-7.4,4.79-15.12,5.43-23.09l.19-5.23.75-.25h1.05Z"/>
  <path class="cls-71" d="M299.55,117.97l.2.05-.16,2.82-.14,2.89-.21,2.31-.18,1.79c-.55,5.35-1.48,10.54-3.18,15.64l-2.21,6.64-1.81,4.35-.89,2.01-2.36,4.72-1.91,3.24-1.09,1.81-4.16,6.05-.92,1.21-1.69,2.13-1.93,2.31-2.42,2.55-3.72,3.74-2.48,2.32-2.31,1.92-2.03,1.61-1.11.85c-4.01,3.05-8.24,5.66-12.69,8.01l-2.04.92-1.24-1.52.83.1c4.79-2.33,9.22-5.06,13.51-8.18l2.18-1.69,1.6-1.27,3.29-2.84c2.26-1.96,4.31-4.01,6.28-6.27l3.12-3.58,1.46-1.82c4.42-5.84,8.29-11.99,11.21-18.72l2.64-6.64c2.62-7.47,4.32-15.17,4.89-23.1l.11-1.62.17-4.75h1.39Z"/>
  <path class="cls-82" d="M300.53,118.15l.04,4.08-.22,2.26-.21,2.77-.38,2.68-.43,2.98-1.14,5.72-.43,1.6-.35,1.4-.82,2.77-1.43,4.34-1.31,3.46-1.49,3.39c-3.23,7.38-7.52,14.13-12.62,20.37l-1.05,1.28-2.16,2.47-6.68,6.71-1.15.98-2.08,1.78-1.93,1.52-1.32.99-2.28,1.73-4.77,3.12-4.52,2.6-2.33,1.27c-.19.1-.75.12-.89.07l-.52-.62,2.04-.91c4.45-2.35,8.69-4.95,12.69-8.01l1.11-.85,2.03-1.61,2.31-1.92,2.48-2.32,3.72-3.74,2.42-2.55,1.93-2.32,1.7-2.12.92-1.21,4.16-6.05,1.09-1.81,1.91-3.24,2.36-4.73.89-2.01,1.81-4.35,2.21-6.63c1.7-5.1,2.64-10.29,3.18-15.64l.18-1.79.21-2.3.14-2.89.17-2.82.16.04.62.1.03-.04Z"/>
  <path class="cls-90" d="M282.07,117.93l-.19,1.76-.11,3.93-.27,2.08-.36,2.72-.44,2.73-.92,4.47c-.13.27-.18.45-.26.74-1.52,5.84-3.7,11.4-6.66,16.68l-1.42,2.54-.49.77-1.46,2.31-1.95,2.77-3.95,4.88-1.07,1.23-4.53,4.49-2.5,2.12-4.72,3.72-1.61,1.1-1.74,1.15c-3.46,2.27-7.08,4.1-10.88,5.7l-.61-.75,1.52-.71,3.43-1.58,3.85-2.15,2.11-1.28,3.68-2.49,1.22-.9,1.94-1.51,1.72-1.38,2.28-2.12,4.67-4.76,2.16-2.43,1.54-1.92,1.25-1.61.48-.73c2.58-3.92,5.03-7.88,6.93-12.22,4.05-9.24,6.3-19.01,6.33-29.15l1.03-.2h0Z"/>
  <path class="cls-64" d="M233.81,182.56l-.59-.7.83-.29,2.8-1.26,3.44-1.69,1.15-.59,3.39-2.08,2.29-1.51,3.02-2.17,2.38-2.02,1.54-1.19,4.6-4.57.86-.9.31-.42c.35-.28.53-.51.76-.81l1.27-1.61.83-.86,1.21-1.69,1.56-2.3.82-1.26.76-1.11.74-1.42,1.21-2.1,1.47-2.92,1.25-2.84.39-.9.35-.93.62-1.61.36-1.02.39-1.16.33-1.07.45-1.73.38-1.45.35-1.02.42-2.45.28-1.36.29-1.43.4-3.29.27-3.23.2-2.98.69-.26.19-.02-.39,6.36-.35,2.82-.21,1.45c-1.82,10.83-6.06,21.07-12.52,29.86l-.83,1.12-1.05,1.29-1.26,1.59-7.68,7.69-2.42,1.97-1.32,1.02-1.86,1.39c-3.59,2.67-7.45,4.69-11.49,6.57l-2.88,1.09h0Z"/>
  <path class="cls-70" d="M288.82,117.59c.03,16.33-4.96,32.38-14.27,45.86l-.74,1.03-1.15,1.55-1.15,1.52-2.02,2.42-1.96,2.28c-2.41,2.8-5.09,5.28-7.96,7.57l-1.51,1.21-1.94,1.52-1.45,1.05c-4.09,2.87-8.34,5.32-12.85,7.5l-.89.15-.6-.73h.19s.43.27.43.27c5.05-2.29,9.68-5.08,14.18-8.28l3.48-2.72,4.16-3.65,3.92-3.97,3.26-3.66,1.44-1.8,3.7-5.14c8.58-13.09,13.12-28.36,13.13-43.96h.6v-.02Z"/>
  <path class="cls-63" d="M263.13,197.43l-1.05.48c-3.3,2.23-6.67,4.22-10.22,6.07l-.59-.23-.95-1.17c5.95-2.87,11.43-6.44,16.63-10.34l-3.82,5.19Z"/>
  <path class="cls-10" d="M266.95,192.23c-5.2,3.91-10.69,7.48-16.63,10.35l-.78-.94c7.44-3.69,14.28-8.32,20.49-13.66l-3.08,4.25Z"/>
  <path class="cls-80" d="M260.06,201.62l-7.23,4.02-1.55-1.89.59.23c3.55-1.84,6.92-3.84,10.22-6.07l1.05-.48-3.08,4.19h0Z"/>
  <path class="cls-73" d="M350.43,143.71c-3.83,21.01-12.68,41.68-25.2,58.88l-1.07,1.47-1.17,1.52-3.41,4.27-1.32,1.58-1.63,1.83-1.48,1.77-3.48,3.63-3.8,3.88-1.02,1.11-1.21-1.65,6.04-6.01,2.98-3.2,2.3-2.69,2.11-2.52,1.33-1.7,2.19-2.85c8.12-10.96,14.68-22.85,19.41-35.68l3.05-9.11,1.38-4.98.57-2.3,1.91-8.88c.66.58,1.2,1.13,1.52,1.63Z"/>
  <path class="cls-87" d="M288.23,117.59c-.01,15.59-4.55,30.86-13.13,43.95l-3.7,5.14-1.43,1.81-3.26,3.66-3.92,3.97-4.15,3.65-3.49,2.72c-4.5,3.21-9.13,5.99-14.18,8.29l-.43-.26c5.96-3.1,12.16-6.52,17.4-10.95l2.21-1.86,1.12-.98,5.77-5.77,2.47-2.91,1.63-2.02,1.23-1.64,1.15-1.54c3.59-5.32,6.6-10.87,8.84-16.89l2.43-7.39c1.53-5.51,2.44-11.03,2.71-16.74l.2-4.09s.38-.15.53-.15h0Z"/>
  <path class="cls-90" d="M264.74,161.51l.11.71-1.96,1.89-2.97,3.36-2.01,2.02-3.88,3.43-1.6,1.27-2.17,1.68c-3.89,3.01-8.12,5.29-12.58,7.39l-1.9.68c.1-.61.61-.64,1.12-.89l5.1-2.55c.46-.23.71-.61,1.34-.56l1.07-1.06.5.41.12-.61c.03-.16.51-.19.64-.31.4-.39.84-.8,1.47-.7l1.41-1.35c.17-.16.84-.21.88-.2.63-.94,2.12-1.9,3.13-2.48l.76-.66,3.46-3.26,2.88-2.9,2.58-2.63c1.09-1.12,1.55-2.09,2.5-2.68h0Z"/>
  <path class="cls-90" d="M277.84,134.59l.07.8c0,.12-.24.4-.17.49l.19.24c-.3.28-.45.68-.39,1.11-.13.11-.4.33-.4.49l.04.67c-.1.06-.43.18-.42.32l.03.56v.36s-.2.02-.2.02l-.58-.22c.24-.36.39-.66.48-1.04l.76-3.22.59-.58h0Z"/>
  <path class="cls-90" d="M279.45,126.21l.02,1.51c-.05.12-.22.36-.15.45l.21.24c-.26.17-.41.29-.44.42-.03.14.23.28.47.38l-.46.3c-.24.15.15.88.01.92l-.24.06c-.17-.1-.54-.36-.46-.32.29-.96.33-1.74.37-2.64l.22-.92c.03-.12.07-.31.14-.34l.31-.06h0Z"/>
  <path class="cls-90" d="M274.98,143.93l.35.27c-.62.24-.93.95-.88,1.65-.33.22-.72.58-.36,1.01l-.69.76-.45-.48.47-.83.62-1.28.4-.9.17-.24c.06-.1.3-.02.37.04Z"/>
  <path class="cls-90" d="M270.92,152.3l.1.65-.79.86c-.2.22-.37.8-.42,1.07l-.99,1.12c-.17-.53.03-.8.31-1.29.52-.89.93-1.97,1.79-2.41Z"/>
  <path class="cls-90" d="M276.32,139.98l.07.76c-.38.32-.45.66-.36,1.12-.09.06-.43.24-.42.4l.05.61-.79.83c-.09-.29.02-.91.21-1.35l.53-1.19.06-.66c.03-.2.48-.44.65-.52h0Z"/>
  <path class="cls-90" d="M278.53,130.77c.2.65.14,1.38-.01,2.06l-.23,1.06c.03.09.13.36.05.38l-.24.05-.48-.23.43-2.01c.07-.39.33-1.07.48-1.31Z"/>
  <path class="cls-90" d="M267.1,158.51l.07.61-1.42,1.47-.54-.43c.67-.38,1.14-.96,1.27-1.62l.62-.03h0Z"/>
  <path class="cls-90" d="M268.59,156.18l.14.6c.02.15-.34.29-.44.39l-.96,1.16-.15-.61c-.01-.18.2-.4.4-.58l1.01-.96Z"/>
  <path class="cls-90" d="M271.76,150.77c.05.37-.03.73-.2.92l-.49.54-.49-.55.44-.18c.08-.03.07-.15.1-.37l.64-.36h0Z"/>
  <path class="cls-90" d="M272.46,149.26l.1.6c.02.12-.28.26-.35.35l-.35.49c-.16-.62-.06-1.33.6-1.44Z"/>
  <path class="cls-90" d="M273.23,147.66l.03.77-.67.72c-.12-.62,0-1.31.64-1.49Z"/>
  <path class="cls-90" d="M265.58,160.85l-.64.61-.07-.52c-.02-.17.64-.14.71-.09Z"/>
  <path class="cls-83" d="M303.64,118.6c-.23,15.67-4.18,31.01-11.73,44.73-2.43,4.43-5.09,8.61-8.19,12.56l-1.36,1.73-2.2,2.6-3.1,3.45c-.27.31-.76.43-1.11.38l3.15-3.56,2.4-2.79,1.47-1.83c4.26-5.65,8.08-11.6,11.09-18.07,5.17-11.1,8.21-22.99,8.81-35.2l.21-4.12.56.12Z"/>
</svg>