<?xml version="1.0" encoding="UTF-8"?>
<svg id="Layer_1" data-name="Layer 1" xmlns="http://www.w3.org/2000/svg" viewBox="0 0 1034.25 602.16">
  <defs>
    <style>
      .cls-1 {
        fill: #f6c159;
      }

      .cls-2 {
        fill: #f8ce81;
      }

      .cls-3 {
        fill: #f7d28d;
      }

      .cls-4 {
        fill: #f6bc4d;
      }

      .cls-5 {
        fill: #fae2b8;
      }

      .cls-6 {
        fill: #fcf0da;
      }

      .cls-7 {
        fill: #fae3ba;
      }

      .cls-8 {
        fill: #f7cb76;
      }

      .cls-9 {
        fill: #f8d696;
      }

      .cls-10 {
        fill: #f8cf84;
      }

      .cls-11 {
        fill: #fae6c2;
      }

      .cls-12 {
        fill: #f7c362;
      }

      .cls-13 {
        fill: #fcedd3;
      }

      .cls-14 {
        fill: #f6c056;
      }

      .cls-15 {
        fill: #f5b332;
      }

      .cls-16 {
        fill: #fbe7c5;
      }

      .cls-17 {
        fill: #f8d595;
      }

      .cls-18 {
        fill: #f8d89e;
      }

      .cls-19 {
        fill: #f6bd50;
      }

      .cls-20 {
        fill: #f9dba4;
      }

      .cls-21 {
        fill: #fae4bd;
      }

      .cls-22 {
        fill: #f9e0b4;
      }

      .cls-23 {
        fill: #fcf1dc;
      }

      .cls-24 {
        fill: #f7c970;
      }

      .cls-25 {
        fill: #fbeacd;
      }

      .cls-26 {
        fill: #f6b942;
      }

      .cls-27 {
        fill: #f5b436;
      }

      .cls-28 {
        fill: #f5b83f;
      }

      .cls-29 {
        fill: #fae5bf;
      }

      .cls-30 {
        fill: #f6c25c;
      }

      .cls-31 {
        fill: #f6be53;
      }

      .cls-32 {
        fill: #f5b63c;
      }

      .cls-33 {
        fill: #fbecd0;
      }

      .cls-34 {
        fill: #fceed4;
      }

      .cls-35 {
        fill: #fcefd7;
      }

      .cls-36 {
        fill: #f7c76d;
      }

      .cls-37 {
        fill: #f7c66a;
      }

      .cls-38 {
        fill: #05425a;
      }

      .cls-39 {
        fill: #f9deaf;
      }

      .cls-40 {
        fill: #f7cd7e;
      }

      .cls-41 {
        fill: #fae3bb;
      }

      .cls-42 {
        fill: #f9daa1;
      }

      .cls-43 {
        fill: #f5b539;
      }

      .cls-44 {
        fill: #f7c567;
      }

      .cls-45 {
        fill: #f8d593;
      }

      .cls-46 {
        fill: #fae2b9;
      }

      .cls-47 {
        fill: #f6c35f;
      }

      .cls-48 {
        fill: #f9dca7;
      }

      .cls-49 {
        fill: #fbe9ca;
      }

      .cls-50 {
        fill: #fbe8c8;
      }

      .cls-51 {
        fill: #fbe8c6;
      }

      .cls-52 {
        fill: #f9ddac;
      }

      .cls-53 {
        fill: #f8d79b;
      }

      .cls-54 {
        fill: #f9dfb2;
      }

      .cls-55 {
        fill: #f6ba45;
      }

      .cls-56 {
        fill: #f8d38d;
      }

      .cls-57 {
        fill: #f7c464;
      }

      .cls-58 {
        fill: #fae5c1;
      }

      .cls-59 {
        fill: #0b445d;
      }

      .cls-60 {
        fill: #f7cc79;
      }

      .cls-61 {
        fill: #f7cd7c;
      }

      .cls-62 {
        fill: #f8d490;
      }

      .cls-63 {
        fill: #f7ca73;
      }

      .cls-64 {
        fill: #f8d799;
      }

      .cls-65 {
        fill: #f8d594;
      }

      .cls-66 {
        fill: #f4b535;
      }

      .cls-67 {
        fill: #f9ddaa;
      }

      .cls-68 {
        fill: #f8d087;
      }

      .cls-69 {
        fill: #f9dead;
      }

      .cls-70 {
        fill: #f6bb48;
      }

      .cls-71 {
        fill: #f9e1b6;
      }

      .cls-72 {
        fill: #f6bb4a;
      }

      .cls-73 {
        fill: #fceed5;
      }

      .cls-74 {
        fill: #f5b434;
      }

      .cls-75 {
        fill: #f8d698;
      }

      .cls-76 {
        fill: #fae7c4;
      }

      .cls-77 {
        fill: #f8d28a;
      }
    </style>
  </defs>
  <polygon class="cls-53" points="882.58 .02 883.91 0 883.85 .68 881.97 .64 879.94 .33 882.58 .02"/>
  <polygon class="cls-3" points="664.68 283.37 648.46 305.47 641.01 296.51 664.68 283.37"/>
  <path class="cls-59" d="M910.97,505.97l11.64-8.02c-.56,1.24-1.17,2.1-2.24,2.85l-7.61,5.32c-.37.26-1.99,0-1.79-.15Z"/>
  <path class="cls-59" d="M661.67,324.62l4.69-6.88.56.49c.16.14-.04,1.09-.17,1.27l-2.64,3.65c-.44.6-1.76,1.53-2.43,1.47Z"/>
  <path class="cls-59" d="M665.78,317.1l-5.39,3.11-.9-1.25,4.82-2.02c.24-.11.96-.42.94-.41-.04.02.39.42.52.56Z"/>
  <path class="cls-38" d="M745.66,257.88l2.86,3.37,1.88,2.63,4.57,6.25,2.35,3.2,4.49,6.11,3.72,5.06,3.74,5.08,3.24,4.39,3.7,5.01,3.76,5.09,1.89,2.57,3.71,5.06,3.2,4.36,4.54,6.17,2.9,3.93,4.06,5.51,3.76,5.11,3.65,4.95,2.47,3.35,3.69,5,3.98,5.4,2.96,4.01,3.2,4.36,4.56,6.18,2.89,3.9,4.04,5.57,1.01,1.39,20.16,27.46,34,46.18,31.96,43.43-11.64,8.02c-.18-.17-.43-.42-.35-.34l-25.6-34.33-72.62-97.02-33.4-44.69-5.09,1.82-42.37-61.61,7.38-7.1,5.12-5.65,1.63.84ZM653.15,310.88l-4.92-5.7-17.37,23.65c-.52.71-1.73,2.37-1.27,2.97l1.96,2.51c4.06,5.22,9.32,8.81,16.17,7.93,5.75-.74,11.51-4.9,12.78-11.46l1.19-6.17,4.69-6.88-.58-.64-5.39,3.11-.9-1.25-6.34-8.08ZM740.23,260.18l-8.4,8.13c-.64.62-.7,2.74-.11,3.61l40.46,58.82c1.1,1.6,4.24.93,6.26.07l33.69,44.97,72.9,97.38,23.4,31.41,2.2,1.05-25.6-34.33-72.62-97.02-33.4-44.69-5.09,1.82-42.37-61.61,7.38-7.1,5.12-5.65-3.81,3.14ZM487.8,110.84c-3.28-3.78-7.19-6.4-11.88-6.68-4.94-.29-10.14,1.37-13.26,5.55l-11.34,15.18-173.96,230.54-48.25-64.42-2.37-2.16-5.05-2.53-7.5-.09c-5,1.43-8.05,4.27-11.16,8.61L8.06,566.72c-6.25,8.72-9.12,9.93-7.7,21.12l1.85,3.96,1.76,2.76,2.73,1.82c1.99,1.33,4,2.02,6.14,2.65l5.25-.08c3.02-1.23,6.96-2.07,9.31-5.34l190.33-265.39,37.93,50.51c.54.72,2.09,2.2,1.64,2.81l-1.94,2.62-23.47,31.13-17.02,22.61-10.09,13.24c-4.41,5.78-4.51,13.74-.23,19.02,2.71,3.34,5.73,5.24,9.58,6.27l6.35-.07c4.02-1.43,7.03-3.16,9.8-6.83l243.32-322.33,1.81-2.39,1.33,1.77,4.12,5.03,1.92,2.7,6.92,7.97,1.95,2.65,1.25,1.11,1.82,2.74,6.92,7.97,1.95,2.65,1.26,1.12,1.88,2.66,1.3,1.18,7.67,9.28,1.1,1.32,1.84,2.78,3.77,4.17,1.94,2.64,1.26,1.12,1.81,2.73,6.92,7.97,1.95,2.65,1.25,1.11,1.84,2.77,3.77,4.17,1.94,2.64,1.27,1.13,1.8,2.71,6.92,7.97,1.95,2.65,1.26,1.12,1.83,2.76,3.77,4.17,1.94,2.64,1.26,1.11,1.81,2.73,6.92,7.97,1.95,2.65,1.26,1.11,1.84,2.76,3.77,4.17,1.95,2.64,1.28,1.13,1.79,2.71,6.92,7.97,1.95,2.66,1.26,1.12,1.83,2.75,3.77,4.17,1.94,2.64,1.26,1.12,1.81,2.72,6.92,7.97,1.95,2.65,1.26,1.11,1.85,2.73,6.66,8.11-84.51,115.14-4.89,6.7c-.95,1.3-1.75,3.07-2.32,4.54l.07,8.29c1.64,5.67,5.6,9.6,11.3,11.33l7.61.04,5.63-2.46,3.67-4.11,148.67-202.53c2.86,2.59,3.85,4.62,5.71,7.15l104.67,142.16,11.52,15.63,8.89,12.09,110.49,150.11,3.9,3.96c1.81,1.08,3.53,1.92,5.49,2.59l7.03-.08,4.92-1.91,2.62-2.02c1.78-2.64,3.22-5.11,4.49-8.08l-.03-6.9c-.95-2.16-1.74-4.24-3.3-6.36l-58.07-78.94-.03.1c-.56,1.24-1.17,2.1-2.24,2.85l-7.61,5.32c-.37.26-1.99,0-1.79-.15-.18-.17-.43-.42-.35-.34l-2.2-1.05-23.4-31.41-72.9-97.38-33.69-44.97c-2.02.86-5.16,1.53-6.26-.07l-40.46-58.82c-.6-.87-.53-2.99.11-3.61l8.4-8.13,3.81-3.14,1.63.84-.79-1.64-3.81-5-3.24-4.4-3.73-5.06-3.76-5.08-3.67-4.91c-.89-1.19-3.05-3.03-4.34-3.72-1.64-.87-3.93-1.57-5.63-2.16-1.69-.08-4.63.31-6.26.74-4.04,1.07-7.12,3.93-9.61,7.33l-3.47,4.74-10.1,13.93-12.51,17.02-10.07,13.72-16.22,22.1-7.45-8.96-5.07-6.19-3.13-3.83-2.54-3.09-3.1-3.73-1.69-2.03-4.07-4.95-3.12-3.78-3.69-4.43-5.15-6.26-3.1-3.77-4.23-5.09-1.99-2.39-4.27-5.15-4.56-5.54-3.68-4.52-2.02-2.46-2.62-3.15-1.45-2.1-2.26-2.35-.53-.71-1.92-2.31-3.14-3.77-3.16-3.82-5.64-6.88-1.13-1.38-2.61-3.13-2.53-3.05-3.15-3.82-3.12-3.79-1.77-2.1-4.49-5.46-2.03-2.46-7.36-8.87-7.71-9.32-5.63-7.02-.56-.67-3.54-4.52-2.13-2.59-9.82-11.86-2.13-2.6c-2.42-2.36-4.85-5.24-6.66-8.09l-2.03-2.59-1.35-1.05-1.92-2.73-5.46-6.28ZM660.49,330.79c-1.26,6.56-7.02,10.72-12.78,11.46-6.85.88-12.11-2.7-16.17-7.93l-1.96-2.51c-.46-.59.75-2.26,1.27-2.97l17.37-23.65,4.92,5.7,6.34,8.08,4.82-2.02c.24-.11.96-.42.94-.41-.04.02.39.42.52.56l.58.64.56.49c.16.14-.04,1.09-.17,1.27l-2.64,3.65c-.44.6-1.76,1.53-2.43,1.47l-1.19,6.17ZM258,380.95c-.09-.74,1.05-1.86,1.63-2.63l17.19-22.87c.88.68,1.96,1.59,2.42,2.21l9.29,12.72c4.29,5.88,2.88,13.96-1.69,19.05s-12.72,6.97-19.31,2.89c-3.62-2.24-9.31-9.51-9.53-11.38ZM286.84,389.44c4.56-5.09,5.98-13.17,1.69-19.05l-9.29-12.72c-.46-.63-1.54-1.53-2.42-2.21l-17.19,22.87c-.58.77-1.71,1.88-1.63,2.63.22,1.87,5.91,9.14,9.53,11.38,6.59,4.08,14.64,2.33,19.31-2.89Z"/>
  <path class="cls-71" d="M581.55,224.06l-2.26-2.35,2.26,2.35Z"/>
  <g>
    <path class="cls-74" d="M1031.59,238.51l.71,3.94-.06.59.67,4.32-.03,1.3.67,4.43v1.15s.03,6.97.03,6.97l-.03,7.23c0,.38-1.36,1.39-1.07,1.68l1.25,1.26-2.69,2.04,1.42,1.73-3.93,3.42,1.42,1.61-3.92,3.4,1.25,1.63-4.96,4.8c.13,2.3-.64,3.6-2.33,4.76,0,2.08-.75,3.88-2.46,5.01.12,4.83-4.56,5.91-3.87,6.7l1.11,1.29-4.98,4.86c.57,3.86-3.86,5.77-3.63,6.01l1.02,1.08-4.94,4.84c.61,4.24-4.35,5.63-3.67,6.44l1.12,1.34-4.05,3.82c-.21.2-1.28-.16-1.37.12l-.48,1.53-1.59,4.74c-.46,1.36-3.13,3.2-4.24,4.31l-.48,3.28-6.06,5.81,1.28,1.49-7.58,7.38-.2,2.9-7.14,6.91-.46,3.15-9.83,9.71-.18,3.51-2.17-1.79-.16,3.41-12.33,12.21-.5,3.59-2.05-1.72-.26,3.53-43.4,43.39-1.6-1.46-.42,4.08-3.77-1.76-34-46.18,44.53-44.94c.46-.41,1.14-.87.91-1.1l-1.22-1.18,13.77-13.61-1.13-1.59,11.22-10.98-1.16-1.6,8.73-8.46-1.3-1.74,6.37-5.14-1.24-1.67,6.34-6-1.27-1.61,6.23-5.86-1.25-1.62,6.37-6.01-1.37-1.56,3.91-3.42-1.32-1.64,6.24-5.86-1.26-1.65,3.93-3.51c-.36-.32-1.6-1.33-1.29-1.6l1.51-1.29c1.58-1.34,2.22-2.47,2.23-4.84l4.89-4.74-1.2-1.64,3.89-3.44-1.41-1.59,3.93-3.44-1.42-1.59,3.94-3.44-1.42-1.59,3.93-3.44-1.42-1.59,3.93-3.44-1.42-1.59,3.93-3.44-1.4-1.58,3.88-3.42-1.25-1.59c.57-.51,1.2-1.01,1.01-1.23l-1.14-1.32,3.93-3.4-1.41-1.62,3.91-3.42-1.39-1.7,2.68-2.07c-.58-.54-1.44-1.23-1.19-1.53l.91-1.11-.98-1.42c-.17-.25,1.04-1.15,1.04-1.45l.17-7.18.46.27.32,3.19,4.83-4.66-1.35-1.54,3.89-3.41-1.25-1.59c.57-.51,1.2-1.01,1.01-1.23l-1.13-1.3,3.87-3.42-1.24-1.59c.57-.51,1.2-1.01,1-1.23l-1.13-1.3,3.87-3.42-1.24-1.59c.56-.51,1.2-1.01,1-1.23l-1.13-1.3,3.87-3.42-1.23-1.59c.57-.53,1.16-1,.98-1.23l-.86-1.09,1.13-2.68c10.76,23.2,17.89,47.87,21.78,73.05Z"/>
    <path class="cls-15" d="M1009.81,165.46l-1.13,2.68.86,1.09c.18.23-.41.7-.98,1.23l1.23,1.59-3.87,3.42,1.13,1.3c.19.22-.44.73-1,1.23l1.24,1.59-3.87,3.42,1.13,1.3c.19.22-.44.72-1,1.23l1.24,1.59-3.87,3.42,1.13,1.3c.19.22-.44.72-1.01,1.23l1.25,1.59-3.89,3.41,1.35,1.54-4.83,4.66-.32-3.19-.46-.27-.17,7.18c0,.3-1.21,1.21-1.04,1.45l.98,1.42-.91,1.11c-.25.3.61.99,1.19,1.53l-2.68,2.07,1.39,1.7-3.91,3.42,1.41,1.62-3.93,3.4,1.14,1.32c.19.22-.44.72-1.01,1.23l1.25,1.59-3.88,3.42,1.4,1.58-3.93,3.44,1.42,1.59-3.93,3.44,1.42,1.59-3.93,3.44,1.42,1.59-3.94,3.44,1.42,1.59-3.93,3.44,1.41,1.59-3.89,3.44,1.2,1.64-4.89,4.74c-.01,2.36-.65,3.49-2.23,4.84l-1.51,1.29c-.31.27.93,1.28,1.29,1.6l-3.93,3.51,1.26,1.65-6.24,5.86,1.32,1.64-3.91,3.42,1.37,1.56-6.37,6.01,1.25,1.62-6.23,5.86,1.27,1.61-6.34,6,1.24,1.67-6.37,5.14,1.3,1.74-8.73,8.46,1.16,1.6-11.22,10.98,1.13,1.59-13.77,13.61,1.22,1.18c.24.23-.45.69-.91,1.1l-44.53,44.94-20.16-27.46,6.22-4.96,18.33-18.16,3.25-3.77,11.46-12.36,7.01-8.45,5.58-6.62,7.02-9.15,2.78-3.66,4.56-6.04,2.89-4.05,8.1-11.49,3.21-4.89,6.94-10.72,3.99-6.56,3.77-6.31,3.43-5.97,11.76-22.36c17.77-35.08,31.01-71.95,40.51-109.84,8.49,12.7,16.16,26.04,22.5,39.94Z"/>
    <path class="cls-66" d="M1034.24,264.31l-.05,28.92-.04,2.4-.63,6.42-.02,1.78-.61,4.43.03,1.29-.67,4.33.06.59-.76,3.91c-7.05,47.31-26.59,92.05-56.54,129.39l-1.91,2.75c-1.69,1.45-3.52,3.68-4.74,5.58l-2.17,2.54c-1.04.76-2.35,2.05-2.87,3.12l-4.75,5.04c-1.74,1.18-3.6,3.1-4.85,4.84l-6.86,6.59c-.89.48-1.96,1.45-2.52,2.27l-3.35,2.56-1.69,1.87-2.72,1.88-1.05,1.34-2.59,2-10.29,7.7-.03.1-31.96-43.43,3.77,1.76.42-4.08,1.6,1.46,43.4-43.39.26-3.53,2.05,1.72.5-3.59,12.33-12.21.16-3.41,2.17,1.79.18-3.51,9.83-9.71.46-3.15,7.14-6.91.2-2.9,7.58-7.38-1.28-1.49,6.06-5.81.48-3.28c1.1-1.11,3.78-2.96,4.24-4.31l1.59-4.74.48-1.53c.09-.28,1.15.08,1.37-.12l4.05-3.82-1.12-1.34c-.68-.81,4.29-2.2,3.67-6.44l4.94-4.84-1.02-1.08c-.23-.25,4.2-2.15,3.63-6.01l4.98-4.86-1.11-1.29c-.69-.79,4-1.88,3.87-6.7,1.71-1.13,2.46-2.93,2.46-5.01,1.7-1.15,2.46-2.46,2.33-4.76l4.96-4.8-1.25-1.63,3.92-3.4-1.42-1.61,3.93-3.42-1.42-1.73,2.69-2.04-1.25-1.26c-.28-.29,1.07-1.3,1.07-1.68l.03-7.23.65-.06v3.15Z"/>
    <path class="cls-21" d="M712.79,12.5l-.65,6.3-.31,10.16-.95,4.41-1.23,10.13-1.12,5.97-1.28,5.88-1.32,5.47-1.28,5.26-1.74,6.33-2.69,8.26-2.04,4.56-.77,2.56-2.68,6.6-5.49,11.97-3.72,6.52-4.45,8.32-2.24,3.57-2.83,4.02c-1.03,1.47-1.88,3.15-2.59,4.76l-5.13,6.3-2.82,3.99-4.4,5.35-8.7,9.32-8.55,8.51-2.81,2.15-8.22,7.47-5.37,4.04-3.51,2.86-4.67,3.45-6.49,4.32-9.79,5.9-5.94,3.5-5.02,2.59-4.65,2.27-4.72,2.27-4.54,1.51c-2.12,1.87-5,3.42-7.54,1.74l-5.64-6.88c2,1.28,3.83.91,6.05-.1l7.44-3.37,3.95-1.6,5.49-2.79,4.63-2.35,6.37-3.53,5.16-3.12,6.91-4.35,4.57-3.37,9.84-7.32,6.44-5.47,3.45-2.9,6.84-6.03c7.5-6.62,13.6-14.24,19.42-22.34l2.58-3.59,5.43-7.51,2.79-4.37,2.56-3.93,2.78-5.1,10.27-20.75c.21-1.05.54-2.05,1.03-3.17l1.42-3.25,1.04-3.09,1.25-2.67,2.64-8.38c.47-1.5.51-3.13,1.31-4.52l1.08-4.02,1.49-6.51c.38-1.65.4-2.85,1.34-4.39l.27-3.97,1.29-6.1,1.24-11c.52-4.58,1.45-9.11,1.01-13.83l1.67-1.58,6.81-1.34Z"/>
    <path class="cls-49" d="M670.69,23.99c-2.97,29.6-12.77,58.05-29.64,82.91l-1.82,2.68-3.73,5.14-3.13,4.27-8.17,9.53-9.35,9.43-10.18,8.75-3.56,2.72c-5.73,4.39-11.37,8.42-17.85,11.7l-21.3,10.77-16.73,6.01-1.15,1.14-7.36-8.87c14.47-4.22,28.64-9.22,41.63-17.18l5.83-3.58,8.93-6.21,6.57-5.25,6.91-5.77,10.86-10.92,6.45-7.61,4.9-6.32c17.1-23.34,27.89-50.65,31.28-79.29l10.61-4.06Z"/>
    <path class="cls-18" d="M787.72,9l5.01-.04h1.33s-.12.67-.12.67l-4.6.02-.57,15.56-.38,5.3c-1.85,25.95-7.4,51.16-15.98,75.61l-8.64,21.73c-9.58,22-22.24,42.13-36.7,61.25l-4.78,5.97-10.22,11.72c-6.44,7.39-13.15,14.09-20.55,20.5l-10.75,9.3-5.25,4.17-7.14,5.51c-14.05,10.18-28.54,19.14-44.23,26.77l-2.72-.34-3.12-3.78,7.3-3.2,20.75-11.91,7.21-4.67,5.71-3.88,9.19-6.59,8.32-6.68,5.2-4.3c11.15-9.22,21.25-19.26,30.52-30.41l5.14-6.19,8.05-10.29c22.04-29.46,37.98-62.54,47.56-98.15l4.85-20.92,2.63-16.2,1.36-13.31,1.01-17.02.24-6.17,4.37-.03Z"/>
    <path class="cls-42" d="M778.91,8.37l6.29-.02h2.53s-.02.65-.02.65l-4.37.03-.24,6.17-1.01,17.02-1.36,13.31-2.63,16.2-4.85,20.92c-9.58,35.62-25.52,68.69-47.56,98.15l-8.05,10.29-5.14,6.19c-9.27,11.15-19.37,21.2-30.52,30.41l-5.2,4.3-8.32,6.68-9.19,6.59-5.71,3.88-7.21,4.67-20.75,11.91-7.3,3.2-3.69-4.43c16.46-8.24,32.36-17.08,46.93-28.2l5.71-4.36,11.66-9.78,3.92-3,22.78-23.09,6.59-7.84,5.04-6.3,3.8-5,3.98-5.43c9.87-13.48,18.19-27.63,25.06-42.85l4.35-9.63c14.94-35.15,22.68-72.65,22.6-110.64h1.88Z"/>
    <path class="cls-22" d="M741.84,8.45l3.77-.08-2.46.81-.61,17.13c-2.08,26.1-7.82,51.37-17.77,75.59l-2.04,4.97-3.79,8.22c-7.46,16.16-16.47,31.22-27.79,45.09l-6.22,7.63-5.92,7.22-21.08,20.51-9.17,7.69-4.31,3.31-6.02,4.48-6.82,4.75-7.68,4.9-9.86,5.71-18.88,9.6c-1.04.53-2.72.6-3.84.32l-3.68-4.52c12.43-5.21,24.29-11.23,35.6-18.65l5.7-3.74,5.29-3.61,15.45-12.18,8.18-6.96,14.82-14.7,3.52-4.05,12.92-15.96,6.39-9.07,4.77-7.58,1.62-2.52,4.66-8.32c9.69-17.3,16.83-35.46,21.81-54.59.25-.94.4-1.57.83-2.44l3.02-14.61,1.45-8.95,1.19-8.9.88-6.83.38-12.86.63-5.77,1.29-.54,2.01-.35,1.79-.14Z"/>
    <path class="cls-25" d="M536.73,170.16l-7.71-9.32c2.36.51,4.38.09,6.67-.56l6.14-1.74c14.38-4.07,27.33-11.01,39.87-19.21l6.13-4.52,4.25-3.24,9.89-8.43,7.48-7.5,7.79-9.24,3.48-4.67c10.86-14.55,18.83-30.61,24.18-47.98l5.14-21.3,10.05-4.41c-3.39,28.64-14.17,55.95-31.28,79.29l-4.9,6.32-6.45,7.61-10.86,10.92-6.91,5.77-6.57,5.25-8.93,6.21-5.83,3.58c-12.99,7.96-27.16,12.96-41.63,17.18Z"/>
    <path class="cls-32" d="M972.72,105.85l3.79,5.14c-.72.46-1.38,1.62-1.64,2.86-7.78,36.54-20.05,71.52-36.03,105.42-11.97,25.39-26.21,49.34-42.04,72.24l-4.02,5.53-3.17,4.34-4.07,5.39-3.83,4.96-5.31,6.6-7.17,8.62-6.7,7.81-7.85,8.48-20.15,20.65-5.97,6.14-4.56-6.18,1.06.47,7.97-7.6,17.72-17.99,8.13-8.95,4.96-5.76,9.09-10.99,4.74-6.06c31.62-40.43,56.42-85.58,73.95-134.04,7.93-21.69,13.93-43.7,18.66-66.19l1.05-1.52,1.39.62Z"/>
    <path class="cls-28" d="M967.05,100.32l2.33,1.89,1.32,1.07.63,1.95-1.05,1.52c-4.73,22.49-10.74,44.5-18.66,66.19-17.53,48.46-42.33,93.61-73.95,134.04l-4.74,6.06-9.09,10.99-4.96,5.76-8.13,8.95-17.72,17.99-7.97,7.6-1.06-.47-3.2-4.36c.33-.04,1.46-.64,1.78-.94l11.19-10.94,10.93-11.2,13.62-15.2,10.01-12,8.34-10.74c37.25-49.19,64.57-104.72,80.85-164.18l2.62-10.16,5.54-24.2,1.38.4Z"/>
    <path class="cls-26" d="M964.22,96.45l2.64,2.42.19,1.45-1.38-.4-5.54,24.2-2.62,10.16c-16.28,59.46-43.6,114.99-80.85,164.18l-8.34,10.74-10.01,12-13.62,15.2-10.93,11.2-11.19,10.94c-.31.31-1.44.9-1.78.94l-2.96-4.01,3.34-3.65,12.45-12.67,11.4-11.88,4.86-5.8,5.33-6.01,4.31-5.18,11.16-13.96,3.82-4.98,3.5-4.8c40.99-56.27,69.93-123.95,82.48-192.69l.99.07,2.74,2.53Z"/>
    <path class="cls-4" d="M943.08,75.15c.59.8,1.62,1.74,2.44,2.35l1.97,2.59-.92.06c-.23.02-.18.8-.25,1.22-8.16,50.62-24.86,99.05-48.95,144.03l-6.42,11.46c-12.34,22.02-26.7,42.45-42.88,61.94l-6.57,7.92-12.15,13.66-21.66,21.34-3.65-4.95c.34-.01,1.49-.65,1.86-1.03l16.35-16.64,9.19-9.88,6.26-7.49,7.53-8.87,4.44-5.64c47.98-61.04,79.39-133.55,91.26-210.42.07-.43.66-1.76.91-1.83l1.25.18Z"/>
    <path class="cls-72" d="M947.49,80.09l1.7.84,4,4.08-.99.17c-.21,0-.45.73-.52,1.13-11.63,66.96-37.54,130.64-76.26,186.34l-10.82,15.02-7.47,9.62-5.6,6.87-8.04,9.52-8.05,9.05-6.74,7.04-15.41,15.57c-.6.61-2.51.24-3.11-.27l-2.47-3.35,21.66-21.34,12.15-13.66,6.57-7.92c16.18-19.5,30.54-39.92,42.88-61.94l6.42-11.46c24.08-44.98,40.79-93.41,48.95-144.03.07-.42.02-1.19.25-1.22l.92-.06Z"/>
    <path class="cls-19" d="M938.55,71.48c.36.21.99.75,1.26,1.08l2.02,2.42c-.24.07-.84,1.4-.91,1.83-11.86,76.87-43.28,149.38-91.26,210.42l-4.44,5.64-7.53,8.87-6.26,7.49-9.19,9.88-16.35,16.64c-.37.37-1.52,1.02-1.86,1.03l-3.76-5.11c.36-.01,1.44-.63,1.73-.91l11.68-11.46,6.07-6.6,13.41-14.87,5.45-6.44,5.37-6.73c28.08-35.14,50.04-74.39,66.41-116.38l4.25-11.71,5.05-15.14c7.81-23.41,12.92-47.3,16.08-71.5l2.77,1.55Z"/>
    <path class="cls-43" d="M980.97,116.75c-8.68,35.8-20.38,70.88-36.38,104.4-8.96,18.76-18.21,36.72-29.72,53.92l-14.35,21.45-5.83,8.12-3.45,4.59-8.93,11.32-5.62,6.92-6.94,8.18-13.55,14.78-21.45,21.27-3.3,2.23-2.89-3.9,5.97-6.14,20.15-20.65,7.85-8.48,6.7-7.81,7.17-8.62,5.31-6.6,3.83-4.96,4.07-5.39,3.17-4.34,4.02-5.53c15.82-22.89,30.07-46.85,42.04-72.24,15.98-33.9,28.25-68.88,36.03-105.42.26-1.24.92-2.4,1.64-2.86l4.47,5.76Z"/>
    <path class="cls-31" d="M931.75,66.17l4.25,3.06-.23.7c-3.16,24.2-8.27,48.09-16.08,71.5l-5.05,15.14-4.25,11.71c-16.37,41.99-38.33,81.23-66.41,116.38l-5.37,6.73-5.45,6.44-13.41,14.87-6.07,6.6-11.68,11.46c-.29.28-1.37.9-1.73.91l-4.06-5.51,1.24.13c.27.06.76-.61,1.01-.84l8.5-7.94,11.84-12.65,6.88-7.52,5.19-6.19,8.22-10.04,16.39-21.99c39.27-57.18,64.96-121.84,74.44-190.84.1-.72.18-1.63.49-1.72l1.32-.38Z"/>
    <path class="cls-39" d="M751.87,7.78l22.64-.06h4.41s-.02.65-.02.65h-1.88s-5.65,0-5.65,0h-6.28s-6.27,0-6.27,0h-1.94c-.49,0-1.67.33-1.75.47l-.65,13.38c-.91,18.7-3.88,36.75-8.89,54.79l-7.95,24.18c-7.3,19.71-17.19,37.86-28.93,55.27l-3.75,5.04-4.03,5.35-5.33,6.61-8.09,9.52-18.86,18.89-3.69,3.2-7.23,6.1c-17.17,14.5-37.46,25.71-56.96,35.85l-.63-.03-4.27-5.15,4.54-2.06c16.58-7.41,32.13-16.44,46.39-27.63l5.67-4.45,8.48-7.26,4.85-3.93,11.62-11.66,9.67-10.48,4.73-5.88,5.62-7.02,3.07-3.95c19.4-26.89,33.26-57.1,41.17-89.45,3.17-12.98,5.58-25.59,6.4-38.9l.43-7.02.52-13.8-.12-.55,2.95-.03Z"/>
    <path class="cls-1" d="M926.09,61.75l-.82.28c-.18.07-.38.47-.7.99-5.48,43.25-17.55,85.3-35.7,125.1-12.76,28.46-28.83,54.82-47.16,79.77l-9.99,12.77-5.64,6.89-8.6,9.69-4.52,5.54-19.63,19.44-4.54-6.17,1.91.35,20.06-20.18,4.64-5.55,7.81-9.16c51.47-61.99,84.5-137.24,95.08-217.28l1.54-7.07,6.27,4.58Z"/>
    <path class="cls-14" d="M926.09,61.75l5.66,4.43-1.32.38c-.32.09-.39,1.01-.49,1.72-9.47,68.99-35.17,133.66-74.44,190.84l-16.39,21.99-8.22,10.04-5.19,6.19-6.88,7.52-11.84,12.65-8.5,7.94c-.25.24-.75.9-1.01.84l-1.24-.13-2.9-3.93,19.63-19.44,4.52-5.54,8.6-9.69,5.64-6.89,9.99-12.77c18.33-24.94,34.4-51.31,47.16-79.77,18.15-39.8,30.22-81.86,35.7-125.1.32-.52.53-.91.7-.99l.82-.28Z"/>
    <path class="cls-30" d="M919.82,57.17l-1.54,7.07c-10.57,80.04-43.61,155.29-95.08,217.28l-7.81,9.16-4.64,5.55-20.06,20.18-1.91-.35-3.2-4.36c.33.18,1.72-.06,2.09-.43l10.42-10.66,4.6-4.98,9.88-10.89,7.54-8.86,5.25-6.54,10.36-13.73c26.3-36.43,47.36-76.63,60.39-119.81l4.71-15.6c5.9-19.56,8.7-39.45,11.86-59.66l1.54-7.15,5.61,3.79Z"/>
    <path class="cls-47" d="M914.22,53.38l-1.54,7.15c-3.16,20.21-5.95,40.1-11.86,59.66l-4.71,15.6c-13.03,43.18-34.09,83.38-60.39,119.81l-10.36,13.73-5.25,6.54-7.54,8.86-9.88,10.89-4.6,4.98-10.42,10.66c-.37.37-1.76.61-2.09.43l-3.71-5.06c.87.33,2.38-.11,3.08-.83l9.34-9.72,10.16-11.25,8.64-9.65,2.43-3.25,13.43-17.34,2.88-4.05,7.67-11.16,7.81-11.81,3.74-6.21,4.37-7.44,7.81-14.43,12.7-26.74,4.52-11.25,2.29-5.76,3.93-10.58,4.25-12.98c5.92-18.09,10.55-36.27,13.23-55.2l2.66-18.79,1.71-8.55,5.7,3.72Z"/>
    <path class="cls-33" d="M529.02,160.85l-5.63-7.02,5.2-1.68,5.43-1.35,14.56-4.95,7.89-3.48,4.96-2.47,7.73-4.29,11.06-7.26,6.57-5.23,5.62-4.5c3.64-2.91,7.01-6.46,9.98-9.95l7.31-8.57,2.99-3.91,5.61-8.28,3.97-6.58,7.79-15.62c4.31-8.64,6.53-17.98,8.35-27.43l11.63-5.81-5.14,21.3c-5.35,17.37-13.32,33.44-24.18,47.98l-3.48,4.67-7.79,9.24-7.48,7.5-9.89,8.43-4.25,3.24-6.13,4.52c-12.53,8.2-25.49,15.14-39.87,19.21l-6.14,1.74c-2.29.65-4.31,1.06-6.67.56Z"/>
    <path class="cls-57" d="M905.44,47.72l-1.6,1.53c-7.24,72.21-33.61,141.09-75.89,199.88l-8.39,11.16-3.28,4.25-6.48,7.95-6.17,7.13-7.63,8.7-16.01,15.75-3.76-5.09,7.97-7.38,11.17-11.48,3.93-4.83,8.51-9.79,4.71-5.98c47.81-60.68,77.53-133.82,85.26-210.83.19-1.94.55-3.31,1.35-4.79l6.31,3.8Z"/>
    <path class="cls-44" d="M899.13,43.91c-.8,1.47-1.16,2.85-1.35,4.79-7.73,77-37.45,150.14-85.26,210.83l-4.71,5.98-8.51,9.79-3.93,4.83-11.17,11.48-7.97,7.38-3.7-5.01c1.61-.74,3.22-1.94,4.42-3.24l7.05-7.61,13.76-15.07,6.28-7.6c50.07-61.54,80.94-136.81,88.11-216.18.15-1.61.45-2.69,1.36-3.52l5.63,3.16Z"/>
    <path class="cls-37" d="M887.89,37.77l5.61,2.98c-.91.83-1.22,1.91-1.36,3.52-7.17,79.36-38.04,154.63-88.11,216.18l-6.28,7.6-13.76,15.07-7.05,7.61c-1.2,1.29-2.81,2.5-4.42,3.24l-3.24-4.39,10.77-10.92,5.41-5.89,9.16-10.36,5.94-7.25,4.44-5.71c21.4-27.5,38.8-57.4,52.3-89.61l6.45-16.47c12.39-33.34,19.64-68.01,22.84-103.47l.18-1.98c.02-.26,1.02.04,1.12-.13Z"/>
    <path class="cls-36" d="M887.89,37.77c-.1.18-1.1-.12-1.12.13l-.18,1.98c-3.2,35.46-10.44,70.13-22.84,103.47l-6.45,16.47c-13.5,32.21-30.9,62.11-52.3,89.61l-4.44,5.71-5.94,7.25-9.16,10.36-5.41,5.89-10.77,10.92-3.74-5.08,16.33-16.7,10.46-12.06,4.22-5.26,5-6.36c44.15-57.58,71.15-126.3,78.39-198.67l1.5-10.91,6.47,3.23Z"/>
    <path class="cls-24" d="M881.43,34.54l-1.5,10.91c-7.24,72.37-34.24,141.1-78.39,198.67l-5,6.36-4.22,5.26-10.46,12.06-16.33,16.7-3.72-5.06,19.85-20.51,6.7-7.94c23.4-27.75,42.06-58.93,56.37-92.46l10.05-26.01c10.63-30.6,17.12-62.15,19.77-94.5.2-2.4.38-4.19,1.31-6.07l5.57,2.6Z"/>
    <path class="cls-63" d="M870.85,29.68l5.01,2.26c-.94,1.88-1.12,3.67-1.31,6.07-2.65,32.35-9.14,63.91-19.77,94.5l-10.05,26.01c-14.3,33.53-32.97,64.7-56.37,92.46l-6.7,7.94-19.85,20.51-4.49-6.11,2.08.8,11.83-12.51,6.15-7.05,7.78-9.18,4.77-6c23.51-29.56,41.89-62.54,55.22-98.02l10.37-31.24c6.78-23.74,10.78-47.51,12.98-71.91l.46-8.06,1.9-.5Z"/>
    <path class="cls-8" d="M864.6,27.08l6.25,2.6-1.9.5-.46,8.06c-2.2,24.41-6.2,48.18-12.98,71.91l-10.37,31.24c-13.32,35.47-31.71,68.46-55.22,98.02l-4.77,6-7.78,9.18-6.15,7.05-11.83,12.51-2.08-.8-2.35-3.2,9.15-9.96,11.91-13.21,5.42-6.55,4.99-6.37c43.82-55.93,69.88-123.9,75.88-194.88l.78-10.74c.02-.26.23-1.08.47-1.11l1.04-.23Z"/>
    <path class="cls-60" d="M864.6,27.08l-1.04.23c-.24.03-.45.85-.47,1.11l-.78,10.74c-5.99,70.99-32.05,138.96-75.88,194.88l-4.99,6.37-5.42,6.55-11.91,13.21-9.15,9.96-4.57-6.25c.78.35,2.33.03,2.86-.56l11.15-12.31,7.91-9.06,5.36-6.59,4.69-6.02c14.21-18.24,26.16-37.56,36.53-58.32,5.52-11.04,10.5-21.6,14.71-33.12l1.34-3.65,7.44-22.24c6.77-23.16,11.71-46.29,13.64-70.37l.7-8.76.94-8.42,6.93,2.62Z"/>
    <path class="cls-40" d="M848.89,21.33l5.63,1.96-1.06.18c-.25.02-.19.82-.22,1.18l-.59,8.23-.7,8.25c-2.07,24.43-6.98,48.06-13.95,71.5l-3.33,10.03-1.29,3.89-2.85,8.39c-11.23,29.08-25.85,56.38-43.82,81.83l-3.77,5.1-4.04,5.41-3.79,4.93-6.87,8.24-6.06,7.16-13.68,13.63-2.86-3.37-.79-1.64,3.79-3.31,15.07-16.35,5.13-6.23,5.22-6.68,3.84-5.11c22.99-30.63,46-75.01,55.57-112.08l1.33-5.16c5.13-19.9,9.63-39.73,11.18-60.28l.67-8.85.69-10.33c.02-.26,1.9-.61,1.53-.52Z"/>
    <path class="cls-2" d="M843.2,19.51l5.69,1.82c.36-.09-1.52.26-1.53.52l-.69,10.33-.67,8.85c-1.55,20.55-6.05,40.38-11.18,60.28l-1.33,5.16c-9.56,37.07-32.58,81.46-55.57,112.08l-3.84,5.11-5.22,6.68-5.13,6.23-15.07,16.35-3.79,3.31-3.81-5c.99-.14,2.14-.98,2.84-1.74l7.27-7.87,7.96-9.06,6.23-7.59,4.45-5.69c14.61-18.69,26.63-38.8,37.14-60.27,12.04-24.61,20.83-50.39,26.59-77.08l.91-4.88c2.94-15.83,5.79-31.44,6.44-47.5l.4-9.75,1.91-.28Z"/>
    <path class="cls-10" d="M843.2,19.51l-1.91.28-.4,9.75c-.66,16.06-3.51,31.68-6.44,47.5l-.91,4.88c-5.76,26.69-14.55,52.47-26.59,77.08-10.5,21.46-22.53,41.58-37.14,60.27l-4.45,5.69-6.23,7.59-7.96,9.06-7.27,7.87c-.7.76-1.85,1.61-2.84,1.74l-3.24-4.4,10.01-10.52,8.74-10.1,5.94-7.32c15.2-18.72,27.46-39.26,38.27-61.03,16.39-32.99,26.68-68.24,31.84-104.67l1.25-14.68,1-14.55c.14-1.98.6-4.63,1.31-6.51l7.03,2.05Z"/>
    <path class="cls-68" d="M831.88,16.33l4.29,1.14c-.71,1.89-1.17,4.53-1.31,6.51l-1,14.55-1.25,14.68c-5.15,36.43-15.45,71.68-31.84,104.67-10.81,21.76-23.07,42.3-38.27,61.03l-5.94,7.32-8.74,10.1-10.01,10.52-3.73-5.06,12.72-13.37,6.33-7.59c15.87-19.03,29.12-39.74,40.45-62.02,19.43-38.22,31-79.89,34.76-122.49l.45-7.19.52-10.14c.03-.64.02-1.98.51-2.1l2.06-.55Z"/>
    <path class="cls-77" d="M831.88,16.33l-2.06.55c-.49.12-.48,1.46-.51,2.1l-.52,10.14-.45,7.19c-3.76,42.6-15.33,84.27-34.76,122.49-11.33,22.28-24.58,42.99-40.45,62.02l-6.33,7.59-12.72,13.37-3.76-5.08,9.47-9.08,2.83-3.9,7.66-8.81,4.45-5.69c18.01-23.01,32.58-48.33,43.73-75.47l9.52-25.81,2.17-7.42c8.21-28.09,12.54-56.89,13.52-86.11l8.2,1.93Z"/>
    <path class="cls-27" d="M985.95,123.94l-1.93.59c-.44.16-.56,1.47-.72,2.04l-7.05,26.34-6.29,18.78-4.9,14.03c-10.59,27.69-23.47,54.04-38.49,79.65l-13.63,21.62-8.51,12.26-12.52,17.03-3.12,3.85-8.71,10.79-7.54,8.81-12.14,13.63-23.56,23.56c-.72.72-1.36,1.74-1.35,2.55l-4.04-5.57,3.3-2.23,21.45-21.27,13.55-14.78,6.94-8.18,5.62-6.92,8.93-11.32,3.45-4.59,5.83-8.12,14.35-21.45c11.51-17.2,20.76-35.16,29.72-53.92,16-33.52,27.7-68.6,36.38-104.4l4.97,7.19Z"/>
    <path class="cls-56" d="M823.68,14.4c-.97,29.22-5.3,58.02-13.52,86.11l-2.17,7.42-9.52,25.81c-11.15,27.14-25.72,52.46-43.73,75.47l-4.45,5.69-7.66,8.81-2.83,3.9-9.47,9.08-3.67-4.91,2.47-2.16,12.29-13.49,4.82-5.93,4.7-5.98,3.48-4.71,3.46-4.79c36.99-51.13,57.91-115.64,59.45-178.76l.54-2.87,5.81,1.28Z"/>
    <path class="cls-62" d="M817.87,13.11l-.54,2.87c-1.54,63.11-22.46,127.63-59.45,178.76l-3.46,4.79-3.48,4.71-4.7,5.98-4.82,5.93-12.29,13.49-2.47,2.16c-.89-1.19-3.05-3.03-4.34-3.72l5.98-6.25,6.83-7.49,3.49-4.3c18.91-23.35,35.03-48.91,46.91-76.67,15.02-35.09,23.99-72.22,25.45-110.39l.67-11,6.23,1.16Z"/>
    <path class="cls-5" d="M728.07,10.28l.27,9.29c1.65.11,1.66.55.22.72-.32.29-.53.5-.31.55l1.7.37-1.75.75c1.59.08,2.14.83.07.92-.28,1.4-.07,3.42.51,4.89l-1.31,1.86c-1.62-.29-.04,0,.27.05l1.64.29-2.57,2.07,1.52.8c.32.17-.14,1-.47,1.13l-1.21.49c.78.33,1.72.66,1.66,1.03l-.17,1.08-1.03.22c-.22.09-.35.71-.45,1.12l-.74,3.01c-.11,2.91-.26,5.48-1.21,8.63-.23-.16.99.72,1.52,1.04l-1.09.94c-.5.78-1.34,2.98-1.61,4.26l-1.41,6.56,1.59.77-.82.91-1.99,1.95-2.48,10.52c-.3,1.25-.78,2.23-1.58,3.42l1.92.71-.85,1.03c-.55.26-2.04,1.06-2.1,1.71l-.19,2.15-1.74,3.88c-.66,1.46-1,3.49-.69,4.44l.33.74c-.25-.2-1.03-.43-1.21-.17l-.56.8-1.29,2.95-2.04,4.17-1.55,2.71,1.48,1.58c-.08.08-.38.16-.54.2-2.11.58-2.51,2.83-2.07,4.86l-.45.35c-2.17.38-2.5,2.68-2,4.74l-.28.2-2.13,1.18c-.11.72-.09,1.11-.34,1.21l-1.43.59,1.62,1.79-.5.25c-2.81,1.45-4.16,4.98-5.85,7.91-.92,1.59-1.56,2.49-1,4.22l-.78.55-3.3,3.13c-.64.61-1.32,1.35-1.31,1.92l.5,1.98-.74.62-2.01.09c-.44,2.16-1.98,4.08-4.17,5.31l1.76,1.41-.58.82c-.22-.13-2.38-.23-2.33.29l.24,1.71c-.09.02-.57.13-.66.18-3.08,1.89-4.61,5.09-8.21,8.77l-8.44,8.61-9.44,9.47-11.32,10.66-2.46,2.15c-3.32,1.88-8.18,5.04-10.25,8.11-.1-.05-2.32.13-2.86.65l-4.6,4.43c-2.05-.31-3.5,1.04-4.82,2.29-.4.38-1.98.49-2.08,1.01l-.39,2.01-1.64-1.32-3.5,3.47c-2.05-.19-2.89,1.07-4.38,1.82l-16.7,8.36c-1.65.83-3.32.88-3.66,2.89l-2.22.66-1.45-2.1-2.26-2.35-.53-.71,9.35-3.52c13.21-6.15,25.87-12.78,37.62-21.51l6.1-4.53,4.32-3.33,7.91-6.46,25.14-25.17,4.12-5.21,3.44-4.23,2.71-3.69c21.13-28.77,35.03-62.27,40.98-97.72l.7-4.77,1.17-9.21,1.26-20.82.75-.59.56.03,3.19.02Z"/>
    <path class="cls-51" d="M550.61,186.95l-4.49-5.46,18.78-7.33c8.48-3.27,16.23-7.78,23.92-12.48l4.38-2.68,9.35-6.43,6.92-5.53,6.66-5.91,10.3-10.4,5.65-6.33,5.35-6.63,3.49-4.62,5.84-8.66,3.57-5.83,10.48-20.95,1.36-3.72,4.8-14.01,3.4-12.35,2.56-13.5,1.48-11.44,5.86-2.03-.76,6.82-.27,6.54-1.08,2.79-1.15,8.2-1.28,6.05-1.16,3.82-.82,4.62-1.01,2.76-1.27,3.63-1.3,3.86-1.24,3.69-1.34,3.58c-.85,2.27-2.08,4.17-2.72,6.45l-8.07,16.15-3.93,6.55-2.7,4.11-2.07,3.17-2.81,3.97-9.26,11.86-4.59,5.21-2.06,2.27-5.61,5.6-2.02,1.83-7.03,6.35c-3.62,3.27-7.15,6.05-11.24,8.74l-4.94,3.24-4.75,3.29-17.9,9.89-5.03,2.39-8.71,3.88-8.47,3.06c-1.29.47-2.33.98-3.05,1.9Z"/>
    <path class="cls-11" d="M695.35,16.39c-.4.3-1.61,1.58-1.62,2.21l-.11,5.24-1.54,12.33c-3.92,31.4-16.19,60.79-34.27,86.87l-3.71,5.12-4.75,6-4.85,5.84c-6.09,7.33-12.77,13.9-20.33,19.98l-6.23,5.01-5.67,4.35-4,2.9-16.59,10.49-17.11,8.62-10.84,4.34c-1.63.65-3.52,1.1-5.1.98l-3.15-3.82,9.85-3.75,8.01-3.43,15.82-7.89,2.7-1.82,5.9-3.47,6.45-4.23,11.13-8.34,7.16-5.48,18.17-18.28,2.99-3.71,9.86-13.2,3.05-4.3,3.56-5.86,4.22-7.23,7.95-15.68c.09-.89.46-1.48.84-2.46l2.37-6.12,2.08-4.55c.58-2.67,1.51-5.53,2.64-8.12l1.13-4.91,1.21-4.46,1.41-5.66,1.19-4.56,1.28-9.25,1.05-6.71c.55-3.54.5-7.42.18-10.92l7.64-2.09Z"/>
    <path class="cls-75" d="M799.04,10.26h3.76s.8.43.8.43c-.62-.1-1.96.54-2.37.86l-.69,18.32-2.77,24.5c-3.26,20.7-7.82,40.86-15.58,60.27l-6.17,15.43c-9.68,24.19-23.74,45.92-39.57,66.62l-5.35,6.64-6.61,7.84-12.72,13.08c-.56.58-1.31,1.72-1.32,2.41-4.04,1.07-7.12,3.93-9.61,7.33l-3.47,4.74c-20.34,17.49-42.74,32.62-67.09,44.7l-3.1-3.73c.45.15,2.27.1,2.9-.24l7.62-4.15,14.79-8.51,15.62-10.21,7.46-5.66,4.31-3.25,6.32-4.98,6.83-5.81,3.76-3.21,21.88-21.96,7.07-8.1,3.44-4.2c16.71-20.42,30.73-42.5,41.32-66.66l4.86-11.09,4.29-11.34,4.68-14.19,2.69-9.05,1.14-4.59,1.4-5.23,3.7-18.71,1.41-9.76,1.22-8.78.7-9.04.72-7.41-.13-13.34,1.89.04Z"/>
    <path class="cls-70" d="M953.18,85.02l8.34,8-.05.9-.99-.07c-1.03-1.64-2.84-3.45-5.02-5.28l-6.26,29.04-1.85,7.53-4.5,16.3-9.98,29.81c-15.49,41.99-36.94,80.9-63.53,116.75l-7.17,9.35-4.36,5.56-6.9,8.23-7.54,8.79-9.77,10.46-19.76,19.68-3.69-5c.59.51,2.5.88,3.11.27l15.41-15.57,6.74-7.04,8.05-9.05,8.04-9.52,5.6-6.87,7.47-9.62,10.82-15.02c38.72-55.7,64.63-119.38,76.26-186.34.07-.4.31-1.13.52-1.13l.99-.17Z"/>
    <path class="cls-41" d="M719.22,11.27l-2.29,1.34c-.88,44.63-15.27,87.91-40.87,124.28l-5.89,7.95-4.95,5.84c-.89,1.05-1.86,2.36-2.5,3.74l-20.74,20.74c-2.62,1.32-4.44,3.39-6.73,5.22l-7.21,5.8-17.32,11.82-9.14,5.32-9.76,5.29-5.99,2.75-6.65,2.99c-1.71.77-3.72.99-5.47.58l-3.16-3.82c2.54,1.68,5.42.12,7.54-1.74l4.54-1.51,4.72-2.27,4.65-2.27,5.02-2.59,5.94-3.5,9.79-5.9,6.49-4.32,4.67-3.45,3.51-2.86,5.37-4.04,8.22-7.47,2.81-2.15,8.55-8.51,8.7-9.32,4.4-5.35,2.82-3.99,5.13-6.3c.71-1.61,1.56-3.29,2.59-4.76l2.83-4.02,2.24-3.57,4.45-8.32,3.72-6.52,5.49-11.97,2.68-6.6.77-2.56,2.04-4.56,2.69-8.26,1.74-6.33,1.28-5.26,1.32-5.47,1.28-5.88,1.12-5.97,1.23-10.13.95-4.41.31-10.16.65-6.3,6.43-1.23Z"/>
    <path class="cls-12" d="M905.44,47.72l3.08,1.94-1.71,8.55-2.66,18.79c-2.68,18.93-7.31,37.11-13.23,55.2l-4.25,12.98-3.93,10.58-2.29,5.76-4.52,11.25-12.7,26.74-7.81,14.43-4.37,7.44-3.74,6.21-7.81,11.81-7.67,11.16-2.88,4.05-13.43,17.34-2.43,3.25-8.64,9.65-10.16,11.25-9.34,9.72c-.7.73-2.21,1.16-3.08.83l-1.89-2.57,16.01-15.75,7.63-8.7,6.17-7.13,6.48-7.95,3.28-4.25,8.39-11.16c42.27-58.78,68.65-127.67,75.89-199.88l1.6-1.53Z"/>
    <path class="cls-61" d="M854.53,23.29l3.15,1.17-.94,8.42-.7,8.76c-1.94,24.08-6.88,47.21-13.64,70.37l-7.44,22.24-1.34,3.65c-4.22,11.52-9.2,22.08-14.71,33.12-10.37,20.76-22.32,40.08-36.53,58.32l-4.69,6.02-5.36,6.59-7.91,9.06-11.15,12.31c-.54.59-2.09.9-2.86.56l-1.88-2.63,13.68-13.63,6.06-7.16,6.87-8.24,3.79-4.93,4.04-5.41,3.77-5.1c17.97-25.45,32.59-52.76,43.82-81.83l2.85-8.39,1.29-3.89,3.33-10.03c6.97-23.44,11.89-47.08,13.95-71.5l.7-8.25.59-8.23c.03-.36-.03-1.15.22-1.18l1.06-.18Z"/>
    <path class="cls-13" d="M638.41,38.28c-1.82,9.45-4.05,18.79-8.35,27.43l-7.79,15.62-3.97,6.58-5.61,8.28-2.99,3.91-7.31,8.57c-2.97,3.49-6.35,7.03-9.98,9.95l-5.62,4.5-6.57,5.23-11.06,7.26-7.73,4.29-4.96,2.47-7.89,3.48-14.56,4.95-5.43,1.35-5.2,1.68-.56-.67,4.81-8.23c2.24.26,5.32-.15,8-1.19l13.08-5.09,17.97-9.17,6.62-4.21,5.73-4.29,4.27-3.19,13.22-12.61,6.93-7.54,2.95-3.95,7.88-11.7,8.06-15.06,2.96-6.91c2.45-5.71,4.26-11.58,5.21-17.57l7.91-4.18Z"/>
    <path class="cls-74" d="M985.95,123.94l1.37,1.58c-9.5,37.89-22.74,74.76-40.51,109.84l-11.76,22.36-3.43,5.97-3.77,6.31-3.99,6.56-6.94,10.72-3.21,4.89-8.1,11.49-2.89,4.05-4.56,6.04-2.78,3.66-7.02,9.15-5.58,6.62-7.01,8.45-11.46,12.36-3.25,3.77-18.33,18.16-6.22,4.96-1.01-1.39c0-.81.63-1.84,1.35-2.55l23.56-23.56,12.14-13.63,7.54-8.81,8.71-10.79,3.12-3.85,12.52-17.03,8.51-12.26,13.63-21.62c15.02-25.61,27.9-51.96,38.49-79.65l4.9-14.03,6.29-18.78,7.05-26.34c.15-.57.27-1.88.72-2.04l1.93-.59Z"/>
    <path class="cls-76" d="M687.71,18.48c.33,3.5.38,7.38-.18,10.92l-1.05,6.71-1.28,9.25-1.19,4.56-1.41,5.66-1.21,4.46-1.13,4.91c-1.13,2.59-2.07,5.45-2.64,8.12l-2.08,4.55-2.37,6.12c-.38.97-.75,1.57-.84,2.46l-7.95,15.68-4.22,7.23-3.56,5.86-3.05,4.3-9.86,13.2-2.99,3.71-18.17,18.28-7.16,5.48-11.13,8.34-6.45,4.23-5.9,3.47-2.7,1.82-15.82,7.89-8.01,3.43-9.85,3.75-3.12-3.79c20.03-6.04,40.63-17.18,57.24-29.82l5.8-4.41,9.86-8.97c1.91-1.73,3.72-3.33,5.45-5.26l9.2-10.22,5.16-6.6,6.95-9.68,4.77-7.66,7.44-13.37,6.54-14.68c6-13.47,9.31-27.49,11.34-42.05l1.4-9.98.38-6.79,3.8-1.1Z"/>
    <path class="cls-17" d="M803.6,10.68l3.76,1-1.86-.35-.67,13.48c-1.99,39.95-11.92,78.86-28.85,115.21-9.86,21.17-22.37,40.64-36.32,59.13l-4.8,5.99-7.85,9.12-10.31,11.64c-1.69-.08-4.63.31-6.26.74.01-.69.76-1.83,1.32-2.41l12.72-13.08,6.61-7.84,5.35-6.64c15.83-20.69,29.9-42.43,39.57-66.62l6.17-15.43c7.76-19.4,12.32-39.56,15.58-60.27l2.77-24.5.69-18.32c.41-.32,1.75-.96,2.37-.86Z"/>
    <path class="cls-29" d="M705.97,13.84l-1.67,1.58c.43,4.72-.49,9.26-1.01,13.83l-1.24,11-1.29,6.1-.27,3.97c-.95,1.54-.96,2.74-1.34,4.39l-1.49,6.51-1.08,4.02c-.8,1.39-.84,3.02-1.31,4.52l-2.64,8.38-1.25,2.67-1.04,3.09-1.42,3.25c-.49,1.11-.82,2.11-1.03,3.17l-10.27,20.75-2.78,5.1-2.56,3.93-2.79,4.37-5.43,7.51-2.58,3.59c-5.81,8.1-11.91,15.72-19.42,22.34l-6.84,6.03-3.45,2.9-6.44,5.47-9.84,7.32-4.57,3.37-6.91,4.35-5.16,3.12-6.37,3.53-4.63,2.35-5.49,2.79-3.95,1.6-7.44,3.37c-2.22,1-4.05,1.38-6.05.1l-1.13-1.38,22.92-10.04c15.11-7.8,28.86-16.97,41.7-28.01l6.52-5.61,12.58-12.46,2.93-3.91,6.16-7.14,4.09-5.38c21.71-29.83,35.19-64.79,38.98-101.61l.58-13.51,5.73-1.33Z"/>
    <path class="cls-45" d="M811.64,11.95l-.67,11c-1.45,38.17-10.43,75.31-25.45,110.39-11.88,27.77-28,53.32-46.91,76.67l-3.49,4.3-6.83,7.49-5.98,6.25c-1.64-.87-3.93-1.57-5.63-2.16,1.15.17,2.76-.25,3.64-1.23l10.16-11.31,7.21-8.53,4.44-5.65c10.15-12.92,18.83-26.6,26.81-41.09,24.73-44.94,37.66-95.14,38.41-146.41l4.28.27Z"/>
    <path class="cls-7" d="M720.44,11.05l2.5-.18-2.25.86-.65,9.75-.88,10.56-1.29,10.78-.96,4.67-.91,4.45-1.37,8-1.15,3.35-1.22,4.74-1.46,5.67-1.09,3.52-1.27,3.77-1.18,3.33-2.03,5.29-1.16,3.03-1.25,2.94-4.1,9.32-4.81,9.55-3.96,6.89-2.45,4.66-2.49,3.64-2.67,4.12-5.12,7.53-3.96,5.51-2.73,2.83-4.14,5.28c-.76.97-1.32,1.71-2.48,2.64l-1.02,1.38-2.84,2.93-15.07,14.96-5.04,3.89-7.78,6.61-9.87,7.1-7.47,4.93-11.1,6.8-3.78,1.93-11.24,5.55-9.16,4.12-2.72.93-3.14-3.77c1.75.41,3.76.19,5.47-.58l6.65-2.99,5.99-2.75,9.76-5.29,9.14-5.32,17.32-11.82,7.21-5.8c2.28-1.84,4.1-3.9,6.73-5.22l20.74-20.74c.63-1.37,1.6-2.68,2.5-3.74l4.95-5.84,5.89-7.95c25.6-36.38,39.99-79.65,40.87-124.28l2.29-1.34,1.22-.21Z"/>
    <path class="cls-71" d="M734.9,9.07l3.13-.13-1.29.54-3.49.8c-.09,33.19-7.44,65.13-20.7,95.39-6.22,14.19-14.24,27.14-22.69,39.98l-1.57,2.38-4.09,5.27-5.03,6.29-7.06,7.97-15.29,15.55-7.46,6.96-5.62,4.51-6.34,4.94-3.99,2.95-12.05,8.14-6.92,4.2-12.62,7.03-11.22,5.16-4.98,2.32-2.62-3.15,2.22-.66,6.2-2.23c14.59-6.86,28.46-14.32,41.18-24.19l7.08-5.49,5.26-4.16,12.7-11.2,6.56-6.61,9.74-10.99,6.42-6.18-.38-2.34c.1-.06.57-.16.66-.18l2.09-2,.58-.82,4.63-4.83-.21-1.99.74-.62,3.13-3.79c.32-.35,1.48-.81,1.44-1.28l-.46-1.96.78-.55,3.24-3.69c.15-.9.73-2.78,1.37-3.49l2.56-2.83-.32-2.11.5-.25,1.61-1.76c.57-.62.81-1.79.66-3.01l.28-.2,1.17-1.61c.23-.32,1.2-.77,1.16-1.16l-.33-1.97.45-.35,2.18-2.35-.11-2.51c.16-.04.46-.12.54-.2l2.25-2.48c-1.17-1.42.11-2.59,1.19-3.31-.17-2.28.85-4.59,2.89-5.38l-1.17-.87-.33-.74,2.58-2.72-.17-2.01c-.04-.48,1.08-1.08,1.36-1.28-.3-1.53-.04-2.64,1.18-3.67l-.22-2.49.85-1.03s.7-.06.7-.07l-.05-1.17-.08-1.85c-.02-.45,1.06-.84,1.39-1.05l-.12-2.18c-.03-.54.86-1.24,1.29-1.62-.19-1.42.3-2.72,1.28-3.64l-.63-.81c-.23-.3.56-1.23.56-1.61l-.22-2.61.82-.91.79-.17c.27-.06-.06-.93-.17-1.23l.77-3.45c.5-2.24.7-4.62.04-6.74l1.09-.94.78-.21c.48-.13-.8-2.5-.02-3l1.52-.97c-.79-.33-1.65-.77-1.54-1.22s.61-.82,1.44-1.38l-.69-.81c-.24-.28.32-1.08.49-1.46l-.06-4.95.17-1.08c.06-.37-.88-.71-1.66-1.03l1.21-.49c.33-.13.79-.97.47-1.13l-1.52-.8,2.57-2.07-1.64-.29c-.31-.06-1.9-.34-.27-.05l1.31-1.86c-.59-1.48-.79-3.49-.51-4.89,2.07-.09,1.52-.84-.07-.92l1.75-.75-1.7-.37c-.22-.05,0-.26.31-.55,1.44-.17,1.43-.61-.22-.72l-.27-9.29.59-.61,1.26.08,3.73-.62,1.25-.05Z"/>
    <path class="cls-73" d="M529.49,141.94l5.89-9.43c1.37.07,2.93-.31,4.47-.87l2.88-1.04,9.42-4.48,4.16-2.07,12.02-7.42,3.75-2.72,6.23-4.83,16.03-16.13,5.45-6.96c7.64-9.76,12.83-20.41,17.3-31.9l.6-3.8,9.7-6-1.29,3.26c-4.91,16.8-12.39,32.46-23.74,45.97l-8.56,10.19-5.89,5.65c-16.49,15.82-36.75,26.78-58.43,32.59Z"/>
    <path class="cls-16" d="M683.92,19.58l-.38,6.79-1.4,9.98c-2.04,14.56-5.34,28.57-11.34,42.05l-6.54,14.68-7.44,13.37-4.77,7.66-6.95,9.68-5.16,6.6-9.2,10.22c-1.74,1.93-3.55,3.52-5.45,5.26l-9.86,8.97-5.8,4.41c-16.61,12.63-37.21,23.78-57.24,29.82l-1.77-2.1c.72-.93,1.76-1.44,3.05-1.9l8.47-3.06,8.71-3.88,5.03-2.39,17.9-9.89,4.75-3.29,4.94-3.24c4.09-2.69,7.62-5.46,11.24-8.74l7.03-6.35,2.02-1.83,5.61-5.6,2.06-2.27,4.59-5.21,9.26-11.86,2.81-3.97,2.07-3.17,2.7-4.11,3.93-6.55,8.07-16.15c.64-2.27,1.87-4.18,2.72-6.45l1.34-3.58,1.24-3.69,1.3-3.86,1.27-3.63,1.01-2.76.82-4.62,1.16-3.82,1.28-6.05,1.15-8.2,1.08-2.79.27-6.54.76-6.82,3.66-1.09Z"/>
    <path class="cls-29" d="M700.25,15.17l-.58,13.51c-3.8,36.81-17.27,71.77-38.98,101.61l-4.09,5.38-6.16,7.14-2.93,3.91-12.58,12.46-6.52,5.61c-12.84,11.03-26.58,20.21-41.7,28.01l-22.92,10.04-2.61-3.13,5.54-1.76c13.93-4.97,26.68-11.75,38.89-20.11l9.52-6.51,7.86-6.33,6.2-5.14,18-17.96,4.71-5.85,5.78-7.28,10.8-16.35,2.77-4.63,8.09-16.01,3.16-7.46,7.5-22.2c3.82-13.54,5.96-27.07,6.97-41.01l.23-5.18,3.07-.76Z"/>
    <path class="cls-58" d="M697.18,15.93l-.23,5.18c-1,13.94-3.14,27.47-6.97,41.01l-7.5,22.2-3.16,7.46-8.09,16.01-2.77,4.63-10.8,16.35-5.78,7.28-4.71,5.85-18,17.96-6.2,5.14-7.86,6.33-9.52,6.51c-12.21,8.35-24.96,15.13-38.89,20.11l-5.54,1.76-2.53-3.05c1.58.12,3.47-.33,5.1-.98l10.84-4.34,17.11-8.62,16.59-10.49,4-2.9,5.67-4.35,6.23-5.01c7.56-6.08,14.24-12.65,20.33-19.98l4.85-5.84,4.75-6,3.71-5.12c18.08-26.08,30.34-55.47,34.27-86.87l1.54-12.33.11-5.24c.01-.63,1.22-1.9,1.62-2.21l1.83-.46Z"/>
    <path class="cls-6" d="M607.31,57.22c.38,1.32.09,3-.48,4.05l-6.37,11.93-4.47,6.95-2.64,3.65-5.34,6.63-13.16,13.19-4.25,3.35c-7.8,6.08-16,10.91-24.85,15.42l-3.59-.1,5.72-7.87,8.38-10.36c.26.41.61.61.85.45l1.03-.71,4.41-3.08,6.96-5.64,10.29-10.27,6.03-7.24,1.77-2.67c.67-1.01,1.23-2.05,1.56-2.9l-.14-.77,18.26-14Z"/>
    <path class="cls-35" d="M617.7,50.28l-.6,3.8c-4.47,11.49-9.66,22.15-17.3,31.9l-5.45,6.96-16.03,16.13-6.23,4.83-3.75,2.72-12.02,7.42-4.16,2.07-9.42,4.48-2.88,1.04c-1.54.56-3.1.94-4.47.87l6.8-10.22,3.59.1c8.85-4.51,17.05-9.34,24.85-15.42l4.25-3.35,13.16-13.19,5.34-6.63,2.64-3.65,4.47-6.95,6.37-11.93c.56-1.05.86-2.73.48-4.05l10.39-6.95Z"/>
    <path class="cls-50" d="M674.39,22.69l-1.48,11.44-2.56,13.5-3.4,12.35-4.8,14.01-1.36,3.72-10.48,20.95-3.57,5.83-5.84,8.66-3.49,4.62-5.35,6.63-5.65,6.33-10.3,10.4-6.66,5.91-6.92,5.53-9.35,6.43-4.38,2.68c-7.69,4.71-15.43,9.21-23.92,12.48l-18.78,7.33-2.03-2.46,1.15-1.14,16.73-6.01,21.3-10.77c6.48-3.27,12.12-7.31,17.85-11.7l3.56-2.72,10.18-8.75,9.35-9.43,8.17-9.53,3.13-4.27,3.73-5.14,1.82-2.68c16.88-24.86,26.67-53.31,29.64-82.91l3.7-1.29Z"/>
    <path class="cls-34" d="M527.63,144.93l1.86-2.99c21.68-5.82,41.93-16.78,58.43-32.59l5.89-5.65,8.56-10.19c11.35-13.51,18.83-29.17,23.74-45.97l1.29-3.26,3.11-1.81c-.95,5.99-2.75,11.85-5.21,17.57l-2.96,6.91-8.06,15.06-7.88,11.7-2.95,3.95-6.93,7.54-13.22,12.61-4.27,3.19-5.73,4.29-6.62,4.21-17.97,9.17-13.08,5.09c-2.68,1.04-5.76,1.46-8,1.19Z"/>
    <path class="cls-23" d="M556.28,104.05l5.08-5.66,1.99-2.57,17.56-17.44,3.21-2.64,2.48-2.31,2.58-1.44c-.33.85-.89,1.89-1.56,2.9l-1.77,2.67-6.03,7.24-10.29,10.27-6.96,5.64-4.41,3.08-1.03.71c-.24.16-.59-.04-.85-.45Z"/>
    <path class="cls-20" d="M777.03,8.37c.09,37.99-7.65,75.49-22.6,110.64l-4.35,9.63c-6.87,15.22-15.19,29.37-25.06,42.85l-3.98,5.43-3.8,5-5.04,6.3-6.59,7.84-22.78,23.09-3.92,3-11.66,9.78-5.71,4.36c-14.57,11.12-30.48,19.96-46.93,28.2l-5.15-6.26,2.08.86c20.16-9.66,38.98-21.26,56.26-35.39l8.04-6.57,25.48-25.41,8.3-9.89,3.37-4.2,11.26-15.78,4.85-7.17c13.01-21.05,23.23-43.27,30.25-67.12,6.16-20.93,10.42-41.66,11.21-63.42l.83-15.78h5.65Z"/>
    <path class="cls-48" d="M771.39,8.37l-.83,15.78c-.8,21.76-5.05,42.5-11.21,63.42-7.02,23.85-17.24,46.07-30.25,67.12l-4.85,7.17-11.26,15.78-3.37,4.2-8.3,9.89-25.48,25.41-8.04,6.57c-17.28,14.12-36.1,25.72-56.26,35.39l-2.08-.86-3.1-3.77c18.14-7.84,34.88-17.77,50.5-29.77l5-3.84,7.21-6.06c8.79-7.39,16.89-15.2,24.59-23.73l6.26-6.93,4.52-5.6,5.77-7.32,6.4-8.85,2.95-3.88,11.63-19.31c22.18-40.25,33.7-85.07,33.91-130.81h6.28Z"/>
    <path class="cls-67" d="M765.11,8.36c-.21,45.74-11.73,90.56-33.91,130.81l-11.63,19.31-2.95,3.88-6.4,8.85-5.77,7.32-4.52,5.6-6.26,6.93c-7.7,8.53-15.81,16.34-24.59,23.73l-7.21,6.06-5,3.84c-15.63,12-32.36,21.93-50.5,29.77l-4.23-5.09,2.91-.48c14.75-7.14,28.67-15.15,42.06-24.54l4.73-3.45,6.35-4.98,4.93-3.95c9.4-7.52,18.18-15.62,26.06-24.78l6.42-7.46,6.59-7.91,3.77-4.97,3.76-5.06,2.43-3.38c30.46-44.11,46.8-96.64,46.71-150.08h6.27Z"/>
    <path class="cls-54" d="M749.05,8.36l-.52,13.8-.43,7.02c-.82,13.31-3.23,25.91-6.4,38.9-7.9,32.35-21.77,62.56-41.17,89.45l-3.07,3.95-5.62,7.02-4.73,5.88-9.67,10.48-11.62,11.66-4.85,3.93-8.48,7.26-5.67,4.45c-14.25,11.19-29.81,20.22-46.39,27.63l-4.54,2.06-4.56-5.54c1.12.28,2.8.21,3.84-.32l18.88-9.6,9.86-5.71,7.68-4.9,6.82-4.75,6.02-4.48,4.31-3.31,9.17-7.69,21.08-20.51,5.92-7.22,6.22-7.63c11.32-13.87,20.33-28.93,27.79-45.09l3.79-8.22,2.04-4.97c9.95-24.22,15.69-49.49,17.77-75.59l.61-17.13,2.46-.81h3.45Z"/>
    <path class="cls-53" d="M793.94,9.63l.67.16-.54,9.24-.45,9.45-.69,7.54-.6,5.86c-1.78,17.49-4.84,34.49-10.4,51.16l-7.24,21.71-5.94,14.25-2.9,6.58-7.73,15.47-6.26,10.61-3.56,5.92-13.62,19.81-3.01,3.97-5.55,6.96-6.31,7.58-7.92,8.35-12.19,12.26-8.12,7.59-7.56,6.29-6.64,5.28-3.65,2.79c-13.1,9.99-26.96,18.51-41.54,26.2l-6.67,2.99-4.07-4.95,2.72.34c15.69-7.62,30.18-16.58,44.23-26.77l7.14-5.51,5.25-4.17,10.75-9.3c7.4-6.41,14.11-13.11,20.55-20.5l10.22-11.72,4.78-5.97c14.46-19.12,27.12-39.25,36.7-61.25l8.64-21.73c8.58-24.45,14.13-49.66,15.98-75.61l.38-5.3.57-15.56,4.6-.02Z"/>
    <path class="cls-64" d="M797.15,10.22l.13,13.34-.72,7.41-.7,9.04-1.22,8.78-1.41,9.76-3.7,18.71-1.4,5.23-1.14,4.59-2.69,9.05-4.68,14.19-4.29,11.34-4.86,11.09c-10.59,24.16-24.6,46.24-41.32,66.66l-3.44,4.2-7.07,8.1-21.88,21.96-3.76,3.21-6.83,5.81-6.32,4.98-4.31,3.25-7.46,5.66-15.62,10.21-14.79,8.51-7.62,4.15c-.63.34-2.45.4-2.9.24l-1.69-2.03,6.67-2.99c14.58-7.69,28.44-16.21,41.54-26.2l3.65-2.79,6.64-5.28,7.56-6.29,8.12-7.59,12.19-12.26,7.92-8.35,6.31-7.58,5.55-6.96,3.01-3.97,13.62-19.81,3.56-5.92,6.26-10.61,7.73-15.47,2.9-6.58,5.94-14.25,7.24-21.71c5.56-16.67,8.62-33.67,10.4-51.16l.6-5.86.69-7.54.45-9.45.54-9.24.52.12,2.02.31Z"/>
    <path class="cls-71" d="M736.74,9.48l-.63,5.77-.38,12.86-.88,6.83-1.19,8.9-1.45,8.95-3.02,14.61c-.43.87-.58,1.49-.83,2.44-4.98,19.13-12.12,37.29-21.81,54.59l-4.66,8.32-1.62,2.52-4.77,7.58-6.39,9.07-12.92,15.96-3.52,4.05-14.82,14.7-8.18,6.96-15.45,12.18-5.29,3.61-5.7,3.74c-11.31,7.42-23.17,13.44-35.6,18.65l-2.02-2.46,4.98-2.32,11.22-5.16,12.62-7.03,6.92-4.2,12.05-8.14,3.99-2.95,6.34-4.94,5.62-4.51,7.46-6.96,15.29-15.55,7.06-7.97,5.03-6.29,4.09-5.27,1.57-2.38c8.45-12.84,16.47-25.79,22.69-39.98,13.25-30.26,20.61-62.2,20.7-95.39l3.49-.8Z"/>
    <path class="cls-46" d="M578.76,221l-1.92-2.31,2.72-.93,9.16-4.12,11.24-5.55,3.78-1.93,11.1-6.8,7.47-4.93,9.87-7.1,7.78-6.61,5.04-3.89,15.07-14.96,2.84-2.93,1.02-1.38c1.16-.93,1.72-1.67,2.48-2.64l4.14-5.28,2.73-2.83,3.96-5.51,5.12-7.53,2.67-4.12,2.49-3.64,2.45-4.66,3.96-6.89,4.81-9.55,4.1-9.32,1.25-2.94,1.16-3.03,2.03-5.29,1.18-3.33,1.27-3.77,1.09-3.52,1.46-5.67,1.22-4.74,1.15-3.35,1.37-8,.91-4.45.96-4.67,1.29-10.78.88-10.56.65-9.75,2.25-.86.64-.05-1.26,20.82-1.17,9.21-.7,4.77c-5.95,35.45-19.84,68.95-40.98,97.72l-2.71,3.69-3.44,4.23-4.12,5.21-25.14,25.17-7.91,6.46-4.32,3.33-6.1,4.53c-11.75,8.73-24.41,15.36-37.62,21.51l-9.35,3.52Z"/>
    <path class="cls-52" d="M758.84,8.36c.09,53.44-16.25,105.97-46.71,150.08l-2.43,3.38-3.76,5.06-3.77,4.97-6.59,7.91-6.42,7.46c-7.88,9.16-16.66,17.26-26.06,24.78l-4.93,3.95-6.35,4.98-4.73,3.45c-13.39,9.39-27.31,17.4-42.06,24.54l-2.91.48-1.99-2.39.63.03,1.41.84c16.53-7.5,31.67-16.62,46.42-27.11l11.41-8.9,13.6-11.94,12.82-13.01,10.66-11.97,4.7-5.91,12.12-16.82c28.08-42.84,42.95-92.83,42.98-143.85h1.94Z"/>
    <path class="cls-45" d="M674.76,269.65l-3.44,1.57c-10.82,7.3-21.85,13.84-33.45,19.87l-1.93-.77-3.13-3.83c19.47-9.39,37.41-21.07,54.45-33.86l-12.51,17.02Z"/>
    <path class="cls-9" d="M687.26,252.64c-17.04,12.8-34.99,24.47-54.45,33.86l-2.54-3.09c24.35-12.08,46.75-27.21,67.09-44.7l-10.1,13.93Z"/>
    <path class="cls-62" d="M664.68,283.37l-23.67,13.14-5.07-6.19,1.93.77c11.6-6.04,22.63-12.57,33.45-19.87l3.44-1.57-10.07,13.72Z"/>
    <path class="cls-55" d="M960.49,93.86c-12.55,68.74-41.49,136.41-82.48,192.69l-3.5,4.8-3.82,4.98-11.16,13.96-4.31,5.18-5.33,6.01-4.86,5.8-11.4,11.88-12.45,12.67-3.34,3.65-3.98-5.4,19.76-19.68,9.77-10.46,7.54-8.79,6.9-8.23,4.36-5.56,7.17-9.35c26.59-35.85,48.04-74.76,63.53-116.75l9.98-29.81,4.5-16.3,1.85-7.53,6.26-29.04c2.18,1.84,3.98,3.64,5.02,5.28Z"/>
    <path class="cls-69" d="M756.9,8.36c-.03,51.02-14.91,101.01-42.98,143.85l-12.12,16.82-4.7,5.91-10.66,11.97-12.82,13.01-13.6,11.94-11.41,8.9c-14.74,10.49-29.89,19.61-46.42,27.11l-1.41-.84c19.5-10.14,39.8-21.35,56.96-35.85l7.23-6.1,3.69-3.2,18.86-18.89,8.09-9.52,5.33-6.61,4.03-5.35,3.75-5.04c11.74-17.42,21.62-35.57,28.93-55.27l7.95-24.18c5.01-18.04,7.98-36.08,8.89-54.79l.65-13.38c.08-.14,1.26-.47,1.75-.47Z"/>
    <path class="cls-71" d="M680,152.12l.38,2.34-6.42,6.18-9.74,10.99-6.56,6.61-12.7,11.2-5.26,4.16-7.08,5.49c-12.72,9.86-26.6,17.33-41.18,24.19l-6.2,2.23c.34-2.01,2.01-2.07,3.66-2.89l16.7-8.36c1.5-.75,2.33-2.01,4.38-1.82l3.5-3.47,1.64,1.32.39-2.01c.1-.52,1.68-.63,2.08-1.01,1.32-1.25,2.77-2.6,4.82-2.29l4.6-4.43c.54-.51,2.76-.7,2.86-.65,2.07-3.07,6.94-6.22,10.25-8.11l2.46-2.15,11.32-10.66,9.44-9.47,8.44-8.61c3.61-3.68,5.13-6.87,8.21-8.77Z"/>
    <path class="cls-71" d="M722.9,64.02l.22,2.61c0,.38-.8,1.31-.56,1.61l.63.81c-.99.92-1.47,2.22-1.28,3.64-.43.37-1.32,1.08-1.29,1.62l.12,2.18c-.33.21-1.4.6-1.39,1.05l.08,1.85.05,1.17s-.69.07-.7.07l-1.92-.71c.8-1.19,1.29-2.17,1.58-3.42l2.48-10.52,1.99-1.95Z"/>
    <path class="cls-71" d="M728.16,36.57l.06,4.95c-.17.38-.73,1.18-.49,1.46l.69.81c-.83.56-1.34.94-1.44,1.38s.75.89,1.54,1.22l-1.52.97c-.78.5.5,2.87.02,3l-.78.21c-.54-.32-1.75-1.2-1.52-1.04.95-3.15,1.1-5.72,1.21-8.63l.74-3.01c.1-.41.23-1.03.45-1.12l1.03-.22Z"/>
    <path class="cls-71" d="M713.52,94.56l1.17.87c-2.04.79-3.06,3.1-2.89,5.38-1.08.72-2.36,1.89-1.19,3.31l-2.25,2.48-1.48-1.58,1.55-2.71,2.04-4.17,1.29-2.95.56-.8c.18-.26.96-.02,1.21.17Z"/>
    <path class="cls-71" d="M700.24,121.97l.32,2.11-2.56,2.83c-.65.71-1.22,2.6-1.37,3.49l-3.24,3.69c-.56-1.73.08-2.63,1-4.22,1.69-2.93,3.04-6.46,5.85-7.91Z"/>
    <path class="cls-71" d="M717.92,81.64l.22,2.49c-1.22,1.03-1.47,2.14-1.18,3.67-.28.2-1.4.8-1.36,1.28l.17,2.01-2.58,2.72c-.31-.95.04-2.98.69-4.44l1.74-3.88.19-2.15c.06-.65,1.55-1.45,2.1-1.71Z"/>
    <path class="cls-71" d="M725.15,51.52c.66,2.11.46,4.5-.04,6.74l-.77,3.45c.11.3.44,1.18.17,1.23l-.79.17-1.59-.77,1.41-6.56c.28-1.28,1.12-3.48,1.61-4.26Z"/>
    <path class="cls-71" d="M687.75,142.3l.21,1.99-4.63,4.83-1.76-1.41c2.19-1.23,3.73-3.16,4.17-5.31l2.01-.09Z"/>
    <path class="cls-71" d="M692.61,134.65l.46,1.96c.04.47-1.12.93-1.44,1.28l-3.13,3.79-.5-1.98c-.01-.58.66-1.31,1.31-1.92l3.3-3.13Z"/>
    <path class="cls-71" d="M703.01,116.95c.15,1.22-.1,2.39-.66,3.01l-1.61,1.76-1.62-1.79,1.43-.59c.25-.1.23-.49.34-1.21l2.13-1.18Z"/>
    <path class="cls-71" d="M705.29,112.01l.33,1.97c.04.4-.93.84-1.16,1.16l-1.17,1.61c-.49-2.06-.16-4.36,2-4.74Z"/>
    <path class="cls-71" d="M707.81,106.8l.11,2.51-2.18,2.35c-.44-2.04-.03-4.28,2.07-4.86Z"/>
    <path class="cls-71" d="M682.75,149.93l-2.09,2-.24-1.71c-.04-.52,2.11-.43,2.33-.29Z"/>
    <path class="cls-65" d="M807.36,11.68c-.75,51.27-13.68,101.47-38.41,146.41-7.97,14.49-16.66,28.17-26.81,41.09l-4.44,5.65-7.21,8.53-10.16,11.31c-.88.99-2.5,1.4-3.64,1.23l10.31-11.64,7.85-9.12,4.8-5.99c13.95-18.49,26.46-37.96,36.32-59.13,16.93-36.35,26.86-75.26,28.85-115.21l.67-13.48,1.86.35Z"/>
  </g>
</svg>